<svg width="24" height="24" viewBox="0 0 24 24" fill="none" xmlns="http://www.w3.org/2000/svg">
<path fill-rule="evenodd" clip-rule="evenodd" d="M11.9996 3.59961C12.6624 3.59961 13.1996 4.13687 13.1996 4.79961L13.1996 10.7996L19.1996 10.7996C19.8624 10.7996 20.3996 11.3369 20.3996 11.9996C20.3996 12.6624 19.8623 13.1996 19.1996 13.1996H13.1996V19.1996C13.1996 19.8624 12.6624 20.3996 11.9996 20.3996C11.3369 20.3996 10.7996 19.8624 10.7996 19.1996L10.7996 13.1996L4.79961 13.1996C4.13687 13.1996 3.59961 12.6623 3.59961 11.9996C3.59961 11.3369 4.13687 10.7996 4.79961 10.7996L10.7996 10.7996V4.79961C10.7996 4.13687 11.3369 3.59961 11.9996 3.59961Z" fill="#1D1E25"/>
</svg>
