<svg width="56" height="56" viewBox="0 0 56 56" fill="none" xmlns="http://www.w3.org/2000/svg">
<path d="M18.69 40.3113C18.69 41.9689 17.3463 43.3126 15.6887 43.3126C14.0312 43.3126 12.6875 41.9689 12.6875 40.3113C12.6875 38.6538 14.0312 37.3101 15.6887 37.3101C17.3463 37.3101 18.69 38.6538 18.69 40.3113Z" fill="#BAE7CB"/>
<path d="M14.1722 30.0658L25.9344 41.8281C27.8251 43.7188 31.0579 42.3797 31.0579 39.7059V32.4455C31.0579 28.3016 27.6986 24.9424 23.5548 24.9424H16.2944C13.6205 24.9424 12.2815 28.1752 14.1722 30.0658Z" fill="#53C989"/>
<path d="M16.2637 21.6535L34.3466 39.7365C37.6553 43.0451 43.3127 40.7018 43.3127 36.0226V20.1906C43.3127 16.0468 39.9534 12.6875 35.8095 12.6875H19.9776C15.2984 12.6875 12.955 18.3449 16.2637 21.6535Z" fill="#1279FC"/>
</svg>
