<svg width="190" height="56" viewBox="0 0 190 56" fill="none" xmlns="http://www.w3.org/2000/svg">
<path d="M18.69 40.3113C18.69 41.9689 17.3463 43.3126 15.6887 43.3126C14.0312 43.3126 12.6875 41.9689 12.6875 40.3113C12.6875 38.6538 14.0312 37.3101 15.6887 37.3101C17.3463 37.3101 18.69 38.6538 18.69 40.3113Z" fill="#BAE7CB"/>
<path d="M14.1722 30.0658L25.9344 41.8281C27.8251 43.7188 31.0579 42.3797 31.0579 39.7059V32.4455C31.0579 28.3016 27.6986 24.9424 23.5548 24.9424H16.2944C13.6205 24.9424 12.2815 28.1752 14.1722 30.0658Z" fill="#53C989"/>
<path d="M16.2637 21.6535L34.3466 39.7365C37.6553 43.0451 43.3127 40.7018 43.3127 36.0226V20.1906C43.3127 16.0468 39.9534 12.6875 35.8095 12.6875H19.9776C15.2984 12.6875 12.955 18.3449 16.2637 21.6535Z" fill="#1279FC"/>
<path d="M61.0996 24.9665C61.0996 24.3512 61.2183 23.7739 61.4555 23.2346C61.6928 22.6954 62.0138 22.2252 62.4186 21.8242C62.8304 21.4163 63.3084 21.0949 63.8528 20.8598C64.3971 20.6247 64.9799 20.5072 65.601 20.5072H72.4892V23.4835H65.601C65.3916 23.4835 65.1962 23.5215 65.0148 23.5976C64.8333 23.6736 64.6728 23.7808 64.5332 23.9191C64.4006 24.0504 64.296 24.206 64.2192 24.3857C64.1424 24.5655 64.104 24.7591 64.104 24.9665C64.104 25.1739 64.1424 25.3709 64.2192 25.5576C64.296 25.7373 64.4006 25.8963 64.5332 26.0346C64.6728 26.166 64.8333 26.2697 65.0148 26.3457C65.1962 26.4218 65.3916 26.4598 65.601 26.4598H68.6054C69.2266 26.4598 69.8093 26.5773 70.3537 26.8124C70.905 27.0405 71.383 27.3586 71.7878 27.7665C72.1996 28.1675 72.5206 28.641 72.7509 29.1872C72.9882 29.7265 73.1068 30.3038 73.1068 30.9191C73.1068 31.5344 72.9882 32.1117 72.7509 32.6509C72.5206 33.1902 72.1996 33.6638 71.7878 34.0717C71.383 34.4726 70.905 34.7907 70.3537 35.0257C69.8093 35.2608 69.2266 35.3783 68.6054 35.3783H61.9371V32.402H68.6054C68.8148 32.402 69.0102 32.364 69.1917 32.288C69.3731 32.2119 69.5301 32.1082 69.6627 31.9768C69.8023 31.8386 69.9105 31.6796 69.9873 31.4998C70.064 31.3201 70.1024 31.1265 70.1024 30.9191C70.1024 30.7117 70.064 30.5181 69.9873 30.3383C69.9105 30.1586 69.8023 30.003 69.6627 29.8717C69.5301 29.7334 69.3731 29.6262 69.1917 29.5502C69.0102 29.4741 68.8148 29.4361 68.6054 29.4361H65.601C64.9799 29.4361 64.3971 29.3186 63.8528 29.0835C63.3084 28.8484 62.8304 28.5304 62.4186 28.1294C62.0138 27.7215 61.6928 27.248 61.4555 26.7087C61.2183 26.1625 61.0996 25.5818 61.0996 24.9665Z" fill="#1279FC"/>
<path d="M91.5739 33.8539C90.876 34.4484 90.0944 34.9047 89.229 35.2228C88.3636 35.5408 87.4668 35.6998 86.5386 35.6998C85.8267 35.6998 85.1393 35.6065 84.4763 35.4198C83.8203 35.2401 83.2027 34.9842 82.6234 34.6524C82.0512 34.3136 81.5277 33.9092 81.0532 33.4391C80.5786 32.9689 80.1703 32.4504 79.8284 31.8835C79.4934 31.3097 79.2317 30.6978 79.0432 30.048C78.8618 29.3912 78.7711 28.7102 78.7711 28.005C78.7711 27.2998 78.8618 26.6188 79.0432 25.962C79.2317 25.3052 79.4934 24.6934 79.8284 24.1265C80.1703 23.5526 80.5786 23.0307 81.0532 22.5605C81.5277 22.0904 82.0512 21.6894 82.6234 21.3576C83.2027 21.0188 83.8203 20.7596 84.4763 20.5798C85.1393 20.3931 85.8267 20.2998 86.5386 20.2998C87.4668 20.2998 88.3636 20.4588 89.229 20.7768C90.0944 21.088 90.876 21.5442 91.5739 22.1457L89.9827 24.7383C89.543 24.2682 89.0231 23.9087 88.4229 23.6598C87.8227 23.404 87.1946 23.2761 86.5386 23.2761C85.8756 23.2761 85.2545 23.4005 84.6752 23.6494C84.096 23.8983 83.59 24.2371 83.1573 24.6657C82.7246 25.0875 82.3827 25.5887 82.1314 26.1694C81.8802 26.7433 81.7545 27.3551 81.7545 28.005C81.7545 28.6549 81.8802 29.2667 82.1314 29.8405C82.3827 30.4075 82.7246 30.9052 83.1573 31.3339C83.59 31.7625 84.096 32.1013 84.6752 32.3502C85.2545 32.5991 85.8756 32.7235 86.5386 32.7235C87.1946 32.7235 87.8227 32.5991 88.4229 32.3502C89.0231 32.0944 89.543 31.7314 89.9827 31.2613L91.5739 33.8539Z" fill="#1279FC"/>
<path d="M106.66 29.4361V26.4598C106.66 26.0519 106.579 25.6682 106.419 25.3087C106.265 24.9423 106.052 24.6242 105.78 24.3546C105.508 24.085 105.187 23.8741 104.817 23.722C104.454 23.563 104.067 23.4835 103.655 23.4835C103.243 23.4835 102.853 23.563 102.483 23.722C102.12 23.8741 101.802 24.085 101.53 24.3546C101.258 24.6242 101.042 24.9423 100.881 25.3087C100.728 25.6682 100.651 26.0519 100.651 26.4598V29.4361H106.66ZM109.664 35.3783H106.66V32.402H100.651V35.3783H97.6568V26.4598C97.6568 25.6371 97.8139 24.8662 98.1279 24.1472C98.442 23.4213 98.8677 22.7887 99.4051 22.2494C99.9494 21.7102 100.584 21.285 101.31 20.9739C102.043 20.6628 102.825 20.5072 103.655 20.5072C104.486 20.5072 105.264 20.6628 105.99 20.9739C106.722 21.285 107.361 21.7102 107.905 22.2494C108.45 22.7887 108.879 23.4213 109.193 24.1472C109.507 24.8662 109.664 25.6371 109.664 26.4598V35.3783Z" fill="#1279FC"/>
<path d="M127.283 35.3783H116.773V20.5072H119.777V32.402H127.283V35.3783Z" fill="#1279FC"/>
<path d="M143.646 35.3783H133.356V20.5072H143.646V23.4835H136.36V26.4598H141.291V29.4361H136.36V32.402H143.646V35.3783Z" fill="#1279FC"/>
<path d="M153.247 35.1709H150.242V20.2998H153.247V27.7354L158.837 20.2998H162.249L157.507 26.5739L162.249 35.1709H158.837L155.539 29.1561L153.247 32.1946V35.1709Z" fill="#02BD6E"/>
<path d="M171.148 35.1709H168.144V20.2998H171.148V35.1709Z" fill="#02BD6E"/>
<path d="M184.748 35.1709H181.754V23.2761H177.242V20.2998H189.249V23.2761H184.748V35.1709Z" fill="#02BD6E"/>
</svg>
