<svg width="40" height="40" viewBox="0 0 40 40" fill="none" xmlns="http://www.w3.org/2000/svg">
<path d="M23.9997 28.9999V26.9999C23.9997 25.9391 23.5783 24.9217 22.8282 24.1716C22.078 23.4214 21.0607 23 19.9998 23H12.9999C11.9391 23 10.9217 23.4214 10.1716 24.1716C9.42142 24.9217 9 25.9391 9 26.9999V28.9999" stroke="black" stroke-width="1.5" stroke-linecap="round" stroke-linejoin="round"/>
<path d="M16.4999 11C15.4391 11 14.4217 11.4214 13.6716 12.1716C12.9214 12.9217 12.5 13.9391 12.5 14.9999C12.5 16.0608 12.9214 17.0782 13.6716 17.8283C14.4217 18.5784 15.4391 18.9999 16.4999 18.9999C17.5608 18.9999 18.5782 18.5784 19.3283 17.8283C20.0784 17.0782 20.4999 16.0608 20.4999 14.9999C20.4999 13.9391 20.0784 12.9217 19.3283 12.1716C18.5782 11.4214 17.5608 11 16.4999 11Z" stroke="black" stroke-width="1.5" stroke-linecap="round" stroke-linejoin="round"/>
<path d="M26 16L30.9999 20.9999" stroke="black" stroke-width="1.5" stroke-linecap="round" stroke-linejoin="round"/>
<path d="M30.9999 16L26 20.9999" stroke="black" stroke-width="1.5" stroke-linecap="round" stroke-linejoin="round"/>
</svg>
