<svg width="40" height="40" viewBox="0 0 40 40" fill="none" xmlns="http://www.w3.org/2000/svg">
<path d="M30.4831 22.7188L29.3581 13.7188C29.2896 13.1749 29.0249 12.6747 28.6137 12.3122C28.2025 11.9497 27.6732 11.7498 27.125 11.75H11C10.6022 11.75 10.2206 11.908 9.93934 12.1893C9.65804 12.4706 9.5 12.8522 9.5 13.25V21.5C9.5 21.8978 9.65804 22.2794 9.93934 22.5607C10.2206 22.842 10.6022 23 11 23H15.0369L18.5787 30.0856C18.6411 30.2102 18.7369 30.315 18.8555 30.3882C18.9741 30.4614 19.1107 30.5001 19.25 30.5C20.2446 30.5 21.1984 30.1049 21.9017 29.4016C22.6049 28.6984 23 27.7446 23 26.75V25.25H28.25C28.5693 25.2501 28.8849 25.1823 29.176 25.051C29.467 24.9197 29.7268 24.728 29.938 24.4885C30.1492 24.2491 30.3071 23.9675 30.4011 23.6623C30.4951 23.3572 30.523 23.0355 30.4831 22.7188ZM14.75 21.5H11V13.25H14.75V21.5ZM28.8125 23.4959C28.7426 23.5763 28.6561 23.6407 28.5591 23.6845C28.462 23.7284 28.3565 23.7507 28.25 23.75H22.25C22.0511 23.75 21.8603 23.829 21.7197 23.9697C21.579 24.1103 21.5 24.3011 21.5 24.5V26.75C21.5001 27.2702 21.32 27.7744 20.9903 28.1767C20.6606 28.5791 20.2016 28.8548 19.6916 28.9569L16.25 22.0728V13.25H27.125C27.3077 13.2499 27.4842 13.3166 27.6212 13.4374C27.7583 13.5582 27.8465 13.725 27.8694 13.9063L28.9944 22.9062C29.0084 23.0118 28.9994 23.1192 28.9681 23.221C28.9367 23.3228 28.8836 23.4166 28.8125 23.4959Z" fill="black"/>
</svg>
