<svg width="40" height="40" viewBox="0 0 40 40" fill="none" xmlns="http://www.w3.org/2000/svg">
<path d="M30.5 27.5004H29V18.8332C29 18.6256 28.957 18.4202 28.8735 18.2301C28.7901 18.04 28.6681 17.8693 28.5153 17.7288L21.0153 10.6525C21.0116 10.6493 21.0082 10.6459 21.005 10.6422C20.7289 10.3911 20.369 10.252 19.9958 10.252C19.6225 10.252 19.2627 10.3911 18.9866 10.6422L18.9763 10.6525L11.4847 17.7288C11.3319 17.8693 11.2099 18.04 11.1265 18.2301C11.043 18.4202 11 18.6256 11 18.8332V27.5004H9.5C9.30109 27.5004 9.11032 27.5794 8.96967 27.72C8.82902 27.8607 8.75 28.0514 8.75 28.2504C8.75 28.4493 8.82902 28.64 8.96967 28.7807C9.11032 28.9213 9.30109 29.0004 9.5 29.0004H30.5C30.6989 29.0004 30.8897 28.9213 31.0303 28.7807C31.171 28.64 31.25 28.4493 31.25 28.2504C31.25 28.0514 31.171 27.8607 31.0303 27.72C30.8897 27.5794 30.6989 27.5004 30.5 27.5004ZM12.5 18.8332L12.5103 18.8238L20 11.7504L27.4906 18.8219L27.5009 18.8313V27.5004H23V23.0004C23 22.6025 22.842 22.221 22.5607 21.9397C22.2794 21.6584 21.8978 21.5004 21.5 21.5004H18.5C18.1022 21.5004 17.7206 21.6584 17.4393 21.9397C17.158 22.221 17 22.6025 17 23.0004V27.5004H12.5V18.8332ZM21.5 27.5004H18.5V23.0004H21.5V27.5004Z" fill="black"/>
</svg>
