<svg width="64" height="64" viewBox="0 0 64 64" fill="none" xmlns="http://www.w3.org/2000/svg">
<path fill-rule="evenodd" clip-rule="evenodd" d="M32 15.9997C34.8995 15.9997 37.25 13.6119 37.25 10.6663C37.25 7.72082 34.8995 5.33301 32 5.33301C29.1005 5.33301 26.75 7.72082 26.75 10.6663C26.75 13.6119 29.1005 15.9997 32 15.9997ZM16.25 17.5235C14.1789 17.5235 12.5 15.8179 12.5 13.714C12.5 11.61 14.1789 9.90446 16.25 9.90446C18.3211 9.90446 20 11.61 20 13.714C20 15.8179 18.3211 17.5235 16.25 17.5235ZM9.5 27.1017C9.5 23.495 12.5221 20.5711 16.25 20.5711C18.3705 20.5711 20.2625 21.5171 21.5 22.9966C21.226 24.2199 20.7603 26.9711 21.0891 28.1902H9.59333C9.53195 27.8362 9.5 27.4726 9.5 27.1017ZM49.3963 46.2389C50.9342 43.9336 52.0398 41.3065 52.5947 38.4776L55.7132 38.1567C56.0559 35.9065 56.0928 33.5099 55.8168 31.2378H52.7873H46.6999C46.8967 32.2225 47 33.2417 47 34.2854C47 42.7012 40.2843 49.5235 32 49.5235C23.7157 49.5235 17 42.7012 17 34.2854C17 33.2417 17.1033 32.2225 17.3001 31.2378H11.2127H8.18315C7.9072 33.5099 7.94412 35.9065 8.28684 38.1567L11.4053 38.4776C11.9572 41.2908 13.0536 43.9046 14.5782 46.2006L12.4979 48.6884C14.0223 50.8655 15.884 52.7769 18.0043 54.3421L20.4063 52.0757C22.6631 53.5965 25.2259 54.686 27.981 55.2285L28.2649 58.6663H35.7351L36.019 55.2285C38.7741 54.686 41.3369 53.5965 43.5937 52.0757L45.9957 54.3421C48.116 52.7769 49.9777 50.8655 51.5021 48.6884L49.3963 46.2389ZM20 34.2854C20 41.018 25.3726 46.4759 32 46.4759C38.6274 46.4759 44 41.018 44 34.2854C44 33.2331 43.8687 32.2119 43.6219 31.2378H20.3781C20.1313 32.2119 20 33.2331 20 34.2854ZM54.5 27.1017C54.5 23.495 51.4779 20.5711 47.75 20.5711C45.6296 20.5711 43.7375 21.5171 42.5 22.9966C42.774 24.2199 43.2397 26.9711 42.9109 28.1902H54.4067C54.4681 27.8362 54.5 27.4726 54.5 27.1017ZM47.75 17.5235C49.8211 17.5235 51.5 15.8179 51.5 13.714C51.5 11.61 49.8211 9.90446 47.75 9.90446C45.6789 9.90446 44 11.61 44 13.714C44 15.8179 45.6789 17.5235 47.75 17.5235ZM32 17.5234C36.9706 17.5234 41 21.6168 41 26.6663C41 27.1855 40.9574 27.6945 40.8756 28.1901H23.1244C23.0426 27.6945 23 27.1855 23 26.6663C23 21.6168 27.0294 17.5234 32 17.5234Z" fill="url(#paint0_linear_933_1716)"/>
<defs>
<linearGradient id="paint0_linear_933_1716" x1="8" y1="5.33301" x2="58.912" y2="8.27508" gradientUnits="userSpaceOnUse">
<stop stop-color="#1279FC"/>
<stop offset="1" stop-color="#02BD6E"/>
</linearGradient>
</defs>
</svg>
