<svg width="64" height="64" viewBox="0 0 64 64" fill="none" xmlns="http://www.w3.org/2000/svg">
<path fill-rule="evenodd" clip-rule="evenodd" d="M31.1274 3.13836C31.5257 2.50987 32.4853 2.50987 32.8836 3.13835L34.4802 5.65775C34.6233 5.88353 34.8567 6.04456 35.1271 6.10402L38.1437 6.76747C38.8963 6.93297 39.1928 7.79954 38.6864 8.35346L36.6565 10.574C36.4746 10.773 36.3855 11.0335 36.4095 11.2961L36.6772 14.2255C36.744 14.9563 35.9677 15.4918 35.2565 15.2057L32.4053 14.0587C32.1497 13.9559 31.8612 13.9559 31.6057 14.0587L28.7545 15.2057C28.0433 15.4918 27.267 14.9563 27.3338 14.2255L27.6015 11.2961C27.6255 11.0335 27.5363 10.773 27.3544 10.574L25.3246 8.35347C24.8182 7.79954 25.1147 6.93297 25.8672 6.76747L28.8839 6.10402C29.1543 6.04456 29.3877 5.88353 29.5307 5.65775L31.1274 3.13836ZM54.1761 8.00604C54.852 7.65087 55.683 8.10645 55.697 8.83985L55.7532 11.7798C55.7582 12.0433 55.8755 12.2936 56.0784 12.4734L58.3416 14.4803C58.9061 14.9809 58.7066 15.8722 57.9764 16.1115L55.0493 17.0707C54.787 17.1567 54.5726 17.34 54.4551 17.5787L53.1445 20.2428C52.8176 20.9074 51.8633 21.0026 51.398 20.4171L49.5328 18.07C49.3656 17.8597 49.1158 17.7227 48.8404 17.6904L45.7672 17.33C45.0005 17.2401 44.6103 16.4077 45.0529 15.8066L46.8272 13.3967C46.9862 13.1808 47.0462 12.9128 46.9934 12.6541L46.4047 9.76728C46.2579 9.04714 46.9709 8.43745 47.7098 8.65142L50.6716 9.50917C50.9371 9.58604 51.224 9.5574 51.4668 9.42981L54.1761 8.00604ZM9.82519 8.53552C9.14933 8.18035 8.31835 8.63594 8.30433 9.36933L8.24813 12.3093C8.2431 12.5728 8.12575 12.823 7.92293 13.0029L5.65975 15.0098C5.09518 15.5104 5.29468 16.4016 6.02487 16.6409L8.95199 17.6002C9.21431 17.6862 9.42871 17.8695 9.54616 18.1082L10.8568 20.7723C11.1837 21.4369 12.138 21.5321 12.6033 20.9466L14.4685 18.5995C14.6357 18.3892 14.8855 18.2522 15.161 18.2199L18.2341 17.8595C19.0008 17.7696 19.391 16.9372 18.9484 16.3361L17.1741 13.9262C17.0151 13.7102 16.9551 13.4423 17.0079 13.1836L17.5966 10.2968C17.7434 9.57662 17.0304 8.96693 16.2915 9.1809L13.3297 10.0386C13.0642 10.1155 12.7773 10.0869 12.5345 9.95929L9.82519 8.53552Z" fill="url(#paint0_linear_933_1726)"/>
<path fill-rule="evenodd" clip-rule="evenodd" d="M26.6049 49.3021C26.6049 42.6681 32.0021 37.2708 38.6361 37.2708C45.2701 37.2708 50.6673 42.6681 50.6673 49.3021C50.6673 55.9361 45.2701 61.3333 38.6361 61.3333C32.0021 61.3333 26.6049 55.9361 26.6049 49.3021ZM42.5812 51.2381C42.5812 49.6626 40.8134 48.381 38.6402 48.381C37.9154 48.381 37.3265 47.954 37.3265 47.4286C37.3265 46.9031 37.9154 46.4762 38.6402 46.4762C39.365 46.4762 39.9539 46.9031 39.9539 47.4286H42.5812C42.5812 46.1886 41.4797 45.1413 39.9539 44.7469V42.6667H37.3265V44.7469C35.8008 45.1413 34.6992 46.1886 34.6992 47.4286C34.6992 49.0041 36.467 50.2857 38.6402 50.2857C39.365 50.2857 39.9539 50.7126 39.9539 51.2381C39.9539 51.7635 39.365 52.1905 38.6402 52.1905C37.9154 52.1905 37.3265 51.7635 37.3265 51.2381H34.6992C34.6992 52.4781 35.8008 53.5253 37.3265 53.9198V56H39.9539V53.9198C41.4797 53.5253 42.5812 52.4781 42.5812 51.2381ZM37.5423 30.7083C37.5423 34.388 32.2573 37.2708 25.511 37.2708C18.7648 37.2708 13.334 34.388 13.334 30.7083C13.334 27.0287 18.7648 24 25.511 24C32.2573 24 37.5423 27.0287 37.5423 30.7083ZM13.334 48V50.3958C13.334 54.0754 18.7648 56.9583 25.511 56.9583C25.7702 56.9583 26.0238 56.9421 26.2776 56.926C26.3983 56.9183 26.5199 56.9105 26.6412 56.9046C25.8023 55.5855 25.1766 54.1217 24.8081 52.5569C19.9296 52.4223 15.1958 50.3958 13.334 48ZM24.4638 50.2575L24.4699 50.3401C18.2385 50.0561 13.334 47.3177 13.334 43.8333V41.3334C15.5194 44.0001 19.9369 45.8627 24.8215 45.995C24.5667 47.0583 24.4173 48.1618 24.4173 49.302C24.4173 49.6243 24.4406 49.9411 24.4638 50.2575ZM25.511 43.8333L25.5144 43.8331C26.2358 42.1091 27.3538 40.5549 28.656 39.2528C27.9996 39.3357 27.2993 39.3084 26.5902 39.2808C26.2324 39.2668 25.8722 39.2528 25.5144 39.2528C20.3215 39.2528 15.5194 37.3333 13.334 34.6666V37.2708C13.334 40.9504 18.7648 43.8333 25.511 43.8333Z" fill="url(#paint1_linear_933_1726)"/>
<defs>
<linearGradient id="paint0_linear_933_1726" x1="5.33398" y1="2.66699" x2="60.2438" y2="12.7403" gradientUnits="userSpaceOnUse">
<stop stop-color="#1279FC"/>
<stop offset="1" stop-color="#02BD6E"/>
</linearGradient>
<linearGradient id="paint1_linear_933_1726" x1="13.334" y1="24" x2="52.9013" y2="26.5406" gradientUnits="userSpaceOnUse">
<stop stop-color="#1279FC"/>
<stop offset="1" stop-color="#02BD6E"/>
</linearGradient>
</defs>
</svg>
