<svg width="64" height="64" viewBox="0 0 64 64" fill="none" xmlns="http://www.w3.org/2000/svg">
<path fill-rule="evenodd" clip-rule="evenodd" d="M20.3243 14.3017C24.0654 11.7349 28.3986 10.5322 32.6875 10.679C36.9764 10.8237 41.2204 12.3132 44.7885 15.1274C48.4175 17.9878 50.9355 21.9054 52.1586 26.2132C52.7373 26.2312 53.4119 26.2987 54.0335 26.4827C55.5174 26.9204 56.8029 28.1404 57.6659 30.0613C58.5256 31.9822 58.9031 34.5132 58.5149 37.1302C58.13 39.739 57.0584 41.8888 55.7173 43.2246C54.3728 44.5596 52.8359 45.0662 51.3445 44.6685L49.5119 44.1688C46.5916 48.6951 42.1069 51.9408 36.969 53.2297V53.8286C36.969 55.0314 36.0302 56.0005 34.8601 56.0005H29.1395C27.9687 56.0005 27.0259 55.0314 27.0259 53.8286V52.6831C27.0259 51.4811 27.9687 50.512 29.1395 50.512H33.6766C40.4902 49.8551 46.3784 45.2275 48.7535 38.5466L49.8183 31.2523C49.5354 26.0182 47.0838 21.0322 42.8613 17.7045C36.7913 12.9149 28.4482 12.6351 22.0846 17.0042C17.3303 20.2712 14.4878 25.584 14.1807 31.2275L15.7035 41.6551C16.018 43.8063 14.9042 44.175 12.6578 44.6678C11.149 44.9939 9.63022 44.5596 8.28507 43.2239C6.94395 41.8888 5.87172 39.7383 5.48749 37.1295C5.10057 34.5125 5.46737 31.9774 6.33709 30.0606C7.00765 28.5898 8.49898 26.9197 10.4818 26.3414C11.0129 26.187 11.4602 26.1664 11.8337 26.2132C13.1862 21.4492 16.1226 17.1875 20.3243 14.3017Z" fill="url(#paint0_linear_933_1737)"/>
<path fill-rule="evenodd" clip-rule="evenodd" d="M32.002 18.667C24.6181 18.667 18.668 24.3142 18.668 31.7522C18.668 35.3246 20.0444 38.4818 22.2866 40.7984L21.4909 44.2989C21.2286 45.4508 22.0427 46.2256 23.0976 45.649L26.5808 43.7422C28.2361 44.4475 30.067 44.8374 32.002 44.8374C39.3882 44.8374 45.3347 39.1938 45.3347 31.7522C45.3347 24.3142 39.3882 18.667 32.002 18.667ZM24.6682 30.0003C25.7713 30.0003 26.668 30.8945 26.668 32.0006C26.668 33.1037 25.7713 34.0003 24.6682 34.0003C23.5627 34.0003 22.668 33.1037 22.668 32.0006C22.668 30.895 23.5627 30.0003 24.6682 30.0003ZM32.0015 30.0003C33.1046 30.0003 34.0013 30.8945 34.0013 32.0006C34.0013 33.1037 33.1046 34.0003 32.0015 34.0003C30.896 34.0003 30.0013 33.1037 30.0013 32.0006C30.0013 30.895 30.896 30.0003 32.0015 30.0003ZM41.3346 32.0006C41.3346 30.8945 40.438 30.0003 39.3349 30.0003C38.2293 30.0003 37.3346 30.895 37.3346 32.0006C37.3346 33.1037 38.2293 34.0003 39.3349 34.0003C40.438 34.0003 41.3346 33.1037 41.3346 32.0006Z" fill="url(#paint1_linear_933_1737)"/>
<defs>
<linearGradient id="paint0_linear_933_1737" x1="5.33398" y1="10.667" x2="61.7699" y2="14.9301" gradientUnits="userSpaceOnUse">
<stop stop-color="#1279FC"/>
<stop offset="1" stop-color="#02BD6E"/>
</linearGradient>
<linearGradient id="paint1_linear_933_1737" x1="18.668" y1="18.667" x2="46.9347" y2="20.4479" gradientUnits="userSpaceOnUse">
<stop stop-color="#1279FC"/>
<stop offset="1" stop-color="#02BD6E"/>
</linearGradient>
</defs>
</svg>
