<svg width="40" height="40" viewBox="0 0 40 40" fill="none" xmlns="http://www.w3.org/2000/svg">
<path fill-rule="evenodd" clip-rule="evenodd" d="M8.36582 23.2837C11.9266 22.1709 14.6694 21.9383 19.735 25.4136L26.1217 23.9633C27.9327 23.5574 28.3002 24.8982 28.5933 25.8696L20.7455 30.0153C20.12 30.4349 20.5487 31.1235 21.0474 30.8864L29.4682 26.4762L29.6913 25.5823L36.7866 20.4014C38.4052 19.2202 38.7901 20.5565 39.1663 21.4595L31.3798 29.6778L23.0771 34.1336C21.9791 34.7264 20.8855 34.9317 19.6607 34.7857L8.36582 33.454V23.2837ZM0.833008 23.1697H7.39031V35.0001H0.833008V23.1697Z" fill="url(#paint0_linear_46_3859)"/>
<path fill-rule="evenodd" clip-rule="evenodd" d="M19.1154 9.72666C19.1154 9.49319 19.2086 9.26929 19.3745 9.1042C19.5404 8.93911 19.7654 8.84637 19.9999 8.84637C20.2345 8.84637 20.4595 8.93911 20.6254 9.1042C20.7913 9.26929 20.8844 9.49319 20.8844 9.72666V13.251H24.4257C24.6603 13.251 24.8852 13.3438 25.0511 13.5088C25.217 13.6739 25.3102 13.8978 25.3102 14.1313C25.3102 14.3648 25.217 14.5887 25.0511 14.7538C24.8852 14.9188 24.6603 15.0116 24.4257 15.0116H20.8844V18.5359C20.8844 18.7694 20.7913 18.9933 20.6254 19.1584C20.4595 19.3235 20.2345 19.4162 19.9999 19.4162C19.7654 19.4162 19.5404 19.3235 19.3745 19.1584C19.2086 18.9933 19.1154 18.7694 19.1154 18.5359V15.0116H15.5742C15.3396 15.0116 15.1146 14.9188 14.9488 14.7538C14.7829 14.5887 14.6897 14.3648 14.6897 14.1313C14.6897 13.8978 14.7829 13.6739 14.9488 13.5088C15.1146 13.3438 15.3396 13.251 15.5742 13.251H19.1154V9.72666ZM19.9999 21.5955C15.8578 21.5955 12.5 18.2536 12.5 14.1312C12.5 10.0088 15.8578 6.66699 19.9999 6.66699C24.1421 6.66699 27.5 10.0089 27.5 14.1312C27.5 18.2535 24.1421 21.5955 19.9999 21.5955Z" fill="url(#paint1_linear_46_3859)"/>
<defs>
<linearGradient id="paint0_linear_46_3859" x1="0.833008" y1="19.9365" x2="40.5668" y2="26.4289" gradientUnits="userSpaceOnUse">
<stop stop-color="#1279FC"/>
<stop offset="1" stop-color="#02BD6E"/>
</linearGradient>
<linearGradient id="paint1_linear_46_3859" x1="12.5" y1="6.66699" x2="28.397" y2="7.6926" gradientUnits="userSpaceOnUse">
<stop stop-color="#1279FC"/>
<stop offset="1" stop-color="#02BD6E"/>
</linearGradient>
</defs>
</svg>
