<svg width="40" height="40" viewBox="0 0 40 40" fill="none" xmlns="http://www.w3.org/2000/svg">
<ellipse cx="7.96235" cy="21.8635" rx="2.77778" ry="2.79412" fill="url(#paint0_linear_46_3836)"/>
<rect x="3.33301" y="26.5205" width="9.25926" height="9.31372" rx="1" fill="url(#paint1_linear_46_3836)"/>
<ellipse cx="32.0366" cy="25.589" rx="2.77778" ry="2.79412" fill="url(#paint2_linear_46_3836)"/>
<rect x="27.4072" y="30.2461" width="9.25926" height="5.58824" rx="1" fill="url(#paint3_linear_46_3836)"/>
<path d="M19.7135 5.08807C19.801 4.80686 20.199 4.80686 20.2865 5.08807L21.1115 7.74092C21.1498 7.86395 21.2623 7.94881 21.3912 7.95175L23.9653 8.01038C24.2413 8.01666 24.363 8.36076 24.1524 8.53918L22.0476 10.3227C21.9588 10.3979 21.9215 10.5177 21.9519 10.63L22.7045 13.4103C22.7798 13.6883 22.4581 13.9023 22.2308 13.7255L20.1842 12.1338C20.0758 12.0495 19.9242 12.0495 19.8158 12.1338L17.7692 13.7254C17.5419 13.9023 17.2202 13.6883 17.2955 13.4103L18.0481 10.63C18.0785 10.5177 18.0412 10.3979 17.9524 10.3227L15.8476 8.53918C15.637 8.36076 15.7588 8.01666 16.0347 8.01038L18.6088 7.95175C18.7377 7.94881 18.8502 7.86395 18.8885 7.74092L19.7135 5.08807Z" fill="url(#paint4_linear_46_3836)"/>
<rect x="14.4443" y="17.2061" width="11.1111" height="18.6274" rx="1" fill="url(#paint5_linear_46_3836)"/>
<defs>
<linearGradient id="paint0_linear_46_3836" x1="5.18457" y1="19.0693" x2="11.0728" y2="19.4452" gradientUnits="userSpaceOnUse">
<stop stop-color="#1279FC"/>
<stop offset="1" stop-color="#02BD6E"/>
</linearGradient>
<linearGradient id="paint1_linear_46_3836" x1="3.33301" y1="26.5205" x2="13.1468" y2="27.147" gradientUnits="userSpaceOnUse">
<stop stop-color="#1279FC"/>
<stop offset="1" stop-color="#02BD6E"/>
</linearGradient>
<linearGradient id="paint2_linear_46_3836" x1="29.2588" y1="22.7949" x2="35.1471" y2="23.1708" gradientUnits="userSpaceOnUse">
<stop stop-color="#1279FC"/>
<stop offset="1" stop-color="#02BD6E"/>
</linearGradient>
<linearGradient id="paint3_linear_46_3836" x1="27.4072" y1="30.2461" x2="37.1507" y2="31.2827" gradientUnits="userSpaceOnUse">
<stop stop-color="#1279FC"/>
<stop offset="1" stop-color="#02BD6E"/>
</linearGradient>
<linearGradient id="paint4_linear_46_3836" x1="15" y1="4.16699" x2="25.6071" y2="4.77636" gradientUnits="userSpaceOnUse">
<stop stop-color="#1279FC"/>
<stop offset="1" stop-color="#02BD6E"/>
</linearGradient>
<linearGradient id="paint5_linear_46_3836" x1="14.4443" y1="17.2061" x2="26.2516" y2="17.6583" gradientUnits="userSpaceOnUse">
<stop stop-color="#1279FC"/>
<stop offset="1" stop-color="#02BD6E"/>
</linearGradient>
</defs>
</svg>
