<svg width="40" height="40" viewBox="0 0 40 40" fill="none" xmlns="http://www.w3.org/2000/svg">
<path d="M24.275 31.3239C24.275 31.6977 24.1393 32.0428 23.9036 32.3016H11.2781C10.4426 31.3957 11.1353 29.814 12.3778 29.8428H22.8039C23.618 29.8428 24.275 30.5042 24.275 31.3239ZM11.2781 33.301C10.4426 34.2069 11.1353 35.7886 12.3778 35.7598H22.8039C24.0465 35.7886 24.7391 34.1997 23.8965 33.301H11.2781ZM15.4271 38.3337H19.7618C20.6901 38.3337 21.4542 37.6507 21.6042 36.7591H13.5847C13.7347 37.6507 14.4988 38.3337 15.4271 38.3337ZM24.8034 23.6095C23.2752 24.9467 22.3397 26.8304 22.1469 28.8435H18.9834V8.71274C18.9834 8.28856 19.3405 7.95065 19.7618 7.9866C27.5742 8.68399 30.6234 18.5552 24.8034 23.6095ZM26.1888 16.8801C26.2102 13.8605 24.2393 11.0278 21.3971 10.0428C21.1043 9.93497 20.7687 10.0931 20.6687 10.3951C20.5616 10.6971 20.7116 11.0206 21.0115 11.1284C23.3966 11.9552 25.0605 14.335 25.0391 16.8801C25.0534 17.635 26.1817 17.635 26.1888 16.8801ZM11.6566 25.4212C12.0279 25.033 12.8706 24.5297 13.1848 25.2415C13.2991 25.5363 13.1491 25.8742 12.8492 25.9892C11.5638 26.5788 12.2279 28.3258 13.0277 28.8435H15.5914C16.1412 28.4408 16.4983 27.7938 16.4983 27.0605V10.7618C16.484 8.41078 13.2848 7.72059 12.3279 9.85588C13.0991 10.0069 15.3771 11.9624 13.7418 12.3291C13.1991 12.3075 13.0777 11.5814 12.6492 11.3369C10.4997 9.62582 7.44333 11.9696 8.37167 14.4644C9.34287 14.2846 10.6211 14.7663 11.271 15.5931C11.5923 15.9454 11.2995 16.5565 10.8354 16.5422C10.6711 16.5422 10.514 16.4703 10.3998 16.3337C10.2498 16.1539 9.91416 15.8232 9.38571 15.6722C9.01438 15.55 8.50021 15.5788 8.20029 15.6794C5.23672 16.5493 4.99392 20.7912 7.82181 22.0062C8.20743 21.3807 10.464 19.648 10.8711 20.8631C10.9496 21.1722 10.7568 21.4886 10.4569 21.5605C7.20053 22.3729 7.65042 26.9742 11.0068 27.0676C11.0139 26.5069 11.1924 25.8886 11.6566 25.4212ZM26.6744 9.79836C26.8244 9.79836 26.9672 9.74085 27.0814 9.63301L29.7308 6.96568C30.2521 6.41928 29.4594 5.62124 28.9239 6.15327L26.2745 8.82059C25.9032 9.15849 26.1817 9.81274 26.6744 9.79836ZM33.6013 16.384H29.8593C29.1024 16.3984 29.1095 17.5271 29.8593 17.5343H33.6013C34.3583 17.5271 34.3511 16.3984 33.6013 16.384ZM27.0743 24.2997C26.5316 23.7748 25.7389 24.5729 26.2674 25.1121L28.9167 27.7794C29.4523 28.3114 30.2521 27.499 29.7237 26.967C29.7237 26.9598 27.0743 24.2997 27.0743 24.2997ZM18.9834 6.59183C19.2976 6.59183 19.5547 6.333 19.5547 6.01666V2.24216C19.5547 1.92582 19.2976 1.66699 18.9834 1.66699C18.6692 1.66699 18.4121 1.92582 18.4121 2.24216V6.00948C18.4121 6.333 18.6692 6.59183 18.9834 6.59183Z" fill="url(#paint0_linear_46_3852)"/>
<defs>
<linearGradient id="paint0_linear_46_3852" x1="5.83301" y1="1.66699" x2="35.9115" y2="3.15935" gradientUnits="userSpaceOnUse">
<stop stop-color="#1279FC"/>
<stop offset="1" stop-color="#02BD6E"/>
</linearGradient>
</defs>
</svg>
