<svg width="40" height="40" viewBox="0 0 40 40" fill="none" xmlns="http://www.w3.org/2000/svg">
<path d="M35.0003 21.8066V20.3151C35.0003 18.6067 33.6129 17.2217 31.9014 17.2217H9.76595C8.05444 17.2217 6.66699 18.6067 6.66699 20.3151V21.8066C6.66699 21.9591 6.7909 22.0828 6.94368 22.0828H34.7236C34.8764 22.0828 35.0003 21.9591 35.0003 21.8066Z" fill="url(#paint0_linear_30_5646)"/>
<path d="M6.66699 24.1268V33.5728C6.66699 35.2813 8.05444 36.6662 9.76595 36.6662H31.9014C33.6129 36.6662 35.0003 35.2813 35.0003 33.5728V24.1268C35.0003 23.9743 34.8764 23.8506 34.7236 23.8506H6.94368C6.7909 23.8506 6.66699 23.9743 6.66699 24.1268ZM13.7503 31.3632C13.7503 31.8513 13.3539 32.2471 12.8649 32.2471H11.9795C11.4905 32.2471 11.0941 31.8513 11.0941 31.3632V30.4794C11.0941 29.9913 11.4905 29.5955 11.9795 29.5955H12.8649C13.3539 29.5955 13.7503 29.9913 13.7503 30.4794V31.3632Z" fill="url(#paint1_linear_30_5646)"/>
<path d="M12.6187 8.99656C11.8925 10.0471 11.3704 11.2444 11.1084 12.5336L9.63578 12.6799C9.47393 13.7053 9.4565 14.7975 9.58681 15.833H11.0174H13.892C13.7991 15.3842 13.7503 14.9198 13.7503 14.4441C13.7503 10.6088 16.9216 7.49967 20.8337 7.49967C24.7457 7.49967 27.917 10.6088 27.917 14.4441C27.917 14.9198 27.8682 15.3842 27.7753 15.833H30.6499H32.0805C32.2108 14.7975 32.1934 13.7053 32.0315 12.6799L30.5589 12.5336C30.2983 11.2515 29.7806 10.0604 29.0606 9.014L30.043 7.88025C29.3231 6.88809 28.444 6.01698 27.4427 5.3037L26.3085 6.33656C25.2428 5.64347 24.0325 5.14695 22.7315 4.89975L22.5974 3.33301H19.0699L18.9358 4.89975C17.6348 5.14695 16.4246 5.64347 15.3589 6.33656L14.2246 5.3037C13.2233 6.01698 12.3442 6.88809 11.6243 7.88025L12.6187 8.99656Z" fill="url(#paint2_linear_30_5646)"/>
<path d="M26.5003 14.4441C26.5003 11.3759 23.9633 8.88856 20.8337 8.88856C17.704 8.88856 15.167 11.3759 15.167 14.4441C15.167 14.9237 15.229 15.3891 15.3455 15.833H26.3218C26.4383 15.3891 26.5003 14.9237 26.5003 14.4441Z" fill="url(#paint3_linear_30_5646)"/>
<defs>
<linearGradient id="paint0_linear_30_5646" x1="6.66699" y1="17.2217" x2="33.1153" y2="27.1198" gradientUnits="userSpaceOnUse">
<stop stop-color="#1279FC"/>
<stop offset="1" stop-color="#02BD6E"/>
</linearGradient>
<linearGradient id="paint1_linear_30_5646" x1="6.66699" y1="23.8506" x2="36.224" y2="28.0463" gradientUnits="userSpaceOnUse">
<stop stop-color="#1279FC"/>
<stop offset="1" stop-color="#02BD6E"/>
</linearGradient>
<linearGradient id="paint2_linear_30_5646" x1="32.167" y1="15.833" x2="8.36756" y2="13.062" gradientUnits="userSpaceOnUse">
<stop stop-color="#1279FC"/>
<stop offset="1" stop-color="#02BD6E"/>
</linearGradient>
<linearGradient id="paint3_linear_30_5646" x1="32.167" y1="15.833" x2="8.36756" y2="13.062" gradientUnits="userSpaceOnUse">
<stop stop-color="#1279FC"/>
<stop offset="1" stop-color="#02BD6E"/>
</linearGradient>
</defs>
</svg>
