<svg width="40" height="40" viewBox="0 0 40 40" fill="none" xmlns="http://www.w3.org/2000/svg">
<path d="M36.6663 32.2232C36.6663 32.5179 36.5493 32.8006 36.3409 33.0089C36.1325 33.2173 35.8499 33.3344 35.5552 33.3344H4.44412C4.14943 33.3344 3.86682 33.2173 3.65844 33.0089C3.45007 32.8006 3.33301 32.5179 3.33301 32.2232C3.33301 31.9286 3.45007 31.6459 3.65844 31.4376C3.86682 31.2292 4.14943 31.1121 4.44412 31.1121H35.5552C35.8499 31.1121 36.1325 31.2292 36.3409 31.4376C36.5493 31.6459 36.6663 31.9286 36.6663 32.2232ZM4.48579 16.9705C4.4197 16.7375 4.43156 16.4892 4.51956 16.2636C4.60757 16.0379 4.76689 15.8472 4.97329 15.7205L19.4177 6.83158C19.5928 6.72397 19.7942 6.66699 19.9997 6.66699C20.2051 6.66699 20.4066 6.72397 20.5816 6.83158L35.0261 15.7205C35.2325 15.8471 35.392 16.0376 35.4801 16.2632C35.5683 16.4888 35.5803 16.7369 35.5145 16.97C35.4486 17.203 35.3084 17.4082 35.1151 17.5542C34.9219 17.7002 34.6863 17.779 34.4441 17.7788H31.1108V26.6677H33.333C33.6277 26.6677 33.9103 26.7848 34.1187 26.9931C34.3271 27.2015 34.4441 27.4841 34.4441 27.7788C34.4441 28.0735 34.3271 28.3561 34.1187 28.5645C33.9103 28.7729 33.6277 28.8899 33.333 28.8899H6.66634C6.37166 28.8899 6.08904 28.7729 5.88067 28.5645C5.67229 28.3561 5.55523 28.0735 5.55523 27.7788C5.55523 27.4841 5.67229 27.2015 5.88067 26.9931C6.08904 26.7848 6.37166 26.6677 6.66634 26.6677H8.88856V17.7788H5.55523C5.31327 17.7789 5.0779 17.7 4.88487 17.5541C4.69184 17.4082 4.55172 17.2033 4.48579 16.9705ZM22.2219 25.5566C22.2219 25.8513 22.339 26.1339 22.5473 26.3423C22.7557 26.5506 23.0383 26.6677 23.333 26.6677C23.6277 26.6677 23.9103 26.5506 24.1187 26.3423C24.3271 26.1339 24.4441 25.8513 24.4441 25.5566V18.8899C24.4441 18.5952 24.3271 18.3126 24.1187 18.1042C23.9103 17.8959 23.6277 17.7788 23.333 17.7788C23.0383 17.7788 22.7557 17.8959 22.5473 18.1042C22.339 18.3126 22.2219 18.5952 22.2219 18.8899V25.5566ZM15.5552 25.5566C15.5552 25.8513 15.6723 26.1339 15.8807 26.3423C16.089 26.5506 16.3717 26.6677 16.6663 26.6677C16.961 26.6677 17.2436 26.5506 17.452 26.3423C17.6604 26.1339 17.7775 25.8513 17.7775 25.5566V18.8899C17.7775 18.5952 17.6604 18.3126 17.452 18.1042C17.2436 17.8959 16.961 17.7788 16.6663 17.7788C16.3717 17.7788 16.089 17.8959 15.8807 18.1042C15.6723 18.3126 15.5552 18.5952 15.5552 18.8899V25.5566Z" fill="url(#paint0_linear_30_5684)"/>
<defs>
<linearGradient id="paint0_linear_30_5684" x1="3.33301" y1="6.66699" x2="38.5796" y2="9.49582" gradientUnits="userSpaceOnUse">
<stop stop-color="#1279FC"/>
<stop offset="1" stop-color="#02BD6E"/>
</linearGradient>
</defs>
</svg>
