<svg width="40" height="40" viewBox="0 0 40 40" fill="none" xmlns="http://www.w3.org/2000/svg">
<path d="M36.6663 13.8349V12.0451C36.6663 9.99498 35.0341 8.33301 33.0205 8.33301H6.97884C4.9653 8.33301 3.33301 9.99498 3.33301 12.0451V13.8349C3.33301 14.0179 3.47878 14.1663 3.65853 14.1663H36.3408C36.5206 14.1663 36.6663 14.0179 36.6663 13.8349Z" fill="url(#paint0_linear_30_5665)"/>
<path d="M3.33301 16.6185V27.9538C3.33301 30.0039 4.9653 31.6659 6.97884 31.6659H33.0205C35.0341 31.6659 36.6663 30.0039 36.6663 27.9538V16.6185C36.6663 16.4355 36.5206 16.2871 36.3408 16.2871H3.65853C3.47878 16.2871 3.33301 16.4355 3.33301 16.6185ZM11.6663 25.3023C11.6663 25.888 11.1999 26.3629 10.6247 26.3629H9.58301C9.00775 26.3629 8.54134 25.888 8.54134 25.3023V24.2417C8.54134 23.6559 9.00775 23.181 9.58301 23.181H10.6247C11.1999 23.181 11.6663 23.6559 11.6663 24.2417V25.3023Z" fill="url(#paint1_linear_30_5665)"/>
<defs>
<linearGradient id="paint0_linear_30_5665" x1="3.33301" y1="8.33301" x2="34.5978" y2="19.8042" gradientUnits="userSpaceOnUse">
<stop stop-color="#1279FC"/>
<stop offset="1" stop-color="#02BD6E"/>
</linearGradient>
<linearGradient id="paint1_linear_30_5665" x1="3.33301" y1="16.2871" x2="38.1326" y2="21.1302" gradientUnits="userSpaceOnUse">
<stop stop-color="#1279FC"/>
<stop offset="1" stop-color="#02BD6E"/>
</linearGradient>
</defs>
</svg>
