<svg width="40" height="40" viewBox="0 0 40 40" fill="none" xmlns="http://www.w3.org/2000/svg">
<path fill-rule="evenodd" clip-rule="evenodd" d="M32.7101 8.30092C31.0701 8.60204 29.3978 8.67314 27.7391 8.51228C25.8436 8.32243 23.9803 7.88043 22.1962 7.19743C20.7134 6.63976 19.2352 6.27957 17.7634 6.14851C16.4431 6.02632 15.1125 6.10181 13.8135 6.3726C13.8162 6.48558 13.8088 6.59857 13.7912 6.71014C13.744 6.99215 13.6375 7.26023 13.4789 7.49573C13.3204 7.73122 13.1137 7.92847 12.8732 8.07373C12.7695 8.13487 12.6602 8.18544 12.5469 8.22471L13.0761 15.1771C13.3589 15.2275 13.6265 15.3442 13.8579 15.5182C14.0894 15.6921 14.2784 15.9186 14.4103 16.18C16.0502 15.8789 17.7225 15.808 19.3812 15.969C21.2767 16.1588 23.14 16.6008 24.9241 17.2838C26.4069 17.8415 27.8852 18.2017 29.3569 18.3328C30.6772 18.4549 32.0077 18.3794 33.3068 18.1087C33.3041 17.9957 33.3115 17.8827 33.329 17.7712C33.3762 17.489 33.4829 17.2208 33.6416 16.9852C33.8003 16.7496 34.0072 16.5523 34.2479 16.4071C34.3515 16.3459 34.4608 16.2953 34.5742 16.2561L34.0449 9.30361C33.762 9.25339 33.4943 9.13674 33.2627 8.96279C33.0311 8.78883 32.842 8.5623 32.7101 8.30092ZM18.1219 10.3706C18.2464 10.3782 18.3629 10.4361 18.4458 10.5316C18.5286 10.6272 18.5711 10.7526 18.5637 10.8802C18.5564 11.0078 18.4999 11.1272 18.4067 11.2122C18.3135 11.2971 18.1911 11.3406 18.0666 11.3331C17.5319 11.2984 16.9958 11.2915 16.4604 11.3124C15.9333 11.3336 15.4076 11.3828 14.8854 11.4597C14.762 11.4774 14.6369 11.4441 14.5374 11.3673C14.438 11.2905 14.3722 11.1765 14.3547 11.0501C14.3371 10.9237 14.3692 10.7953 14.4438 10.6931C14.5184 10.591 14.6295 10.5232 14.7528 10.5049C15.308 10.4237 15.8669 10.372 16.4273 10.35C16.9922 10.3276 17.5579 10.3345 18.1221 10.3706H18.1219ZM32.2091 12.6844C32.3323 12.6671 32.4572 12.7005 32.5564 12.7773C32.6556 12.8541 32.7211 12.9681 32.7386 13.0942C32.7562 13.2204 32.7242 13.3486 32.6499 13.4507C32.5755 13.5528 32.4647 13.6206 32.3417 13.6393C31.7865 13.7205 31.2275 13.7722 30.667 13.7941C30.1022 13.8165 29.5366 13.8096 28.9725 13.7735C28.848 13.766 28.7315 13.7081 28.6486 13.6125C28.5657 13.517 28.5233 13.3916 28.5306 13.264C28.5379 13.1364 28.5944 13.0169 28.6876 12.932C28.7808 12.8471 28.9032 12.8035 29.0277 12.8111C29.5624 12.8457 30.0985 12.8526 30.6339 12.8318C31.1611 12.8105 31.6869 12.7613 32.2091 12.6844ZM21.6657 13.676C21.6611 13.6128 21.6687 13.5493 21.688 13.4891C21.7074 13.4289 21.7381 13.3732 21.7784 13.3252C21.8187 13.2772 21.8679 13.2378 21.9231 13.2092C21.9783 13.1807 22.0385 13.1636 22.1001 13.1588C22.1618 13.1541 22.2237 13.1619 22.2824 13.1817C22.3412 13.2015 22.3955 13.233 22.4423 13.2744C22.4892 13.3157 22.5276 13.3661 22.5555 13.4227C22.5833 13.4793 22.6 13.5409 22.6047 13.6041C22.6156 13.7172 22.6502 13.8266 22.7059 13.9248C22.7617 14.023 22.8374 14.1078 22.9279 14.1735C23.1528 14.3339 23.4249 14.4096 23.6981 14.3877C23.9712 14.3657 24.2285 14.2476 24.4263 14.0532C24.506 13.9735 24.5681 13.8772 24.6084 13.7708C24.6487 13.6644 24.6661 13.5503 24.6597 13.4364C24.6102 12.7851 24.049 12.7118 23.4893 12.6388C22.5528 12.5166 21.6187 12.3948 21.5107 10.9757C21.4937 10.7256 21.5294 10.4746 21.6154 10.2399C21.7014 10.0052 21.8357 9.79221 22.0091 9.61541C22.2486 9.3659 22.5456 9.18214 22.8725 9.08103L22.8423 8.68403C22.8377 8.62084 22.8453 8.55733 22.8646 8.49714C22.8839 8.43695 22.9147 8.38126 22.955 8.33323C22.9953 8.28521 23.0445 8.2458 23.0997 8.21726C23.1549 8.18871 23.215 8.17159 23.2767 8.16687C23.3383 8.16215 23.4003 8.16992 23.459 8.18975C23.5177 8.20957 23.5721 8.24105 23.6189 8.2824C23.6658 8.32375 23.7042 8.37415 23.7321 8.43072C23.7599 8.4873 23.7766 8.54895 23.7812 8.61214L23.8112 9.00561C24.1494 9.05383 24.4705 9.18839 24.7447 9.39692C24.9431 9.54442 25.1082 9.73396 25.2288 9.95266C25.3494 10.1714 25.4227 10.4141 25.4436 10.6644C25.4482 10.7276 25.4406 10.7911 25.4213 10.8513C25.402 10.9115 25.3712 10.9672 25.3309 11.0152C25.2906 11.0632 25.2414 11.1026 25.1862 11.1312C25.131 11.1597 25.0709 11.1768 25.0092 11.1816C24.9476 11.1863 24.8856 11.1785 24.8269 11.1587C24.7682 11.1389 24.7138 11.1074 24.667 11.066C24.6201 11.0247 24.5817 10.9743 24.5538 10.9177C24.526 10.8611 24.5093 10.7995 24.5047 10.7363C24.4937 10.6232 24.4591 10.5139 24.4033 10.4156C24.3476 10.3174 24.2719 10.2326 24.1814 10.167C23.9578 10.0022 23.6835 9.92618 23.4094 9.95287C23.1358 9.97058 22.8777 10.0893 22.6829 10.2872C22.6032 10.3669 22.5411 10.4632 22.5009 10.5696C22.4606 10.676 22.4431 10.7901 22.4496 10.904C22.4979 11.5393 23.0519 11.6115 23.6069 11.684C24.5467 11.8066 25.4891 11.9296 25.5983 13.3647C25.6153 13.6148 25.5796 13.8657 25.4936 14.1005C25.4076 14.3352 25.2734 14.5482 25.0999 14.725C24.8727 14.9618 24.5935 15.1395 24.2857 15.2433L24.3168 15.6524C24.3248 15.7793 24.2836 15.9042 24.2022 16.0001C24.1208 16.0961 24.0058 16.1552 23.8821 16.1646C23.7584 16.1741 23.6361 16.1332 23.5417 16.0507C23.4473 15.9683 23.3884 15.851 23.3779 15.7243L23.3488 15.3416C22.9922 15.2999 22.6526 15.1626 22.3642 14.9435C22.1659 14.796 22.0009 14.6064 21.8804 14.3877C21.7598 14.169 21.6866 13.9263 21.6657 13.676Z" fill="url(#paint0_linear_30_5699)"/>
<path fill-rule="evenodd" clip-rule="evenodd" d="M35.6315 5.44198C33.7569 6.22343 31.7569 6.64049 29.7335 6.67186C27.5001 6.70651 25.2031 6.27995 22.8423 5.39216C20.587 4.54373 18.4017 4.13595 16.2863 4.16883C14.2796 4.20115 12.2985 4.63493 10.4541 5.4458L11.4887 19.0381C13.3633 18.2566 15.3633 17.8395 17.3868 17.8082C19.6201 17.7735 21.9171 18.2001 24.2779 19.0878C26.5334 19.9362 28.7187 20.3439 30.8339 20.3111C32.8406 20.2787 34.8217 19.845 36.6661 19.0341L35.6315 5.44198ZM27.8239 7.55283C29.5244 7.71837 31.2394 7.62632 32.9137 7.27964C33.0329 7.25477 33.1569 7.27823 33.2595 7.3451C33.3622 7.41196 33.4355 7.51701 33.4642 7.63817C33.5161 7.85957 33.6438 8.05452 33.8241 8.18757C34.0044 8.32061 34.2253 8.38291 34.4466 8.36314C34.5083 8.35843 34.5702 8.36622 34.6289 8.38605C34.6877 8.40589 34.742 8.43739 34.7888 8.47874C34.8357 8.5201 34.8741 8.57051 34.9019 8.62709C34.9298 8.68367 34.9465 8.74532 34.9511 8.80852L35.5445 16.6041C35.5538 16.7317 35.5132 16.8579 35.4317 16.9548C35.3502 17.0518 35.2345 17.1116 35.11 17.1211C34.9705 17.1304 34.8349 17.1719 34.7134 17.2426C34.5919 17.3132 34.4875 17.4113 34.4083 17.5292C34.3291 17.6472 34.277 17.7821 34.2559 17.9237C34.2349 18.0653 34.2455 18.21 34.2868 18.3468L34.2927 18.3693C34.3069 18.4308 34.3092 18.4945 34.2995 18.5569C34.2897 18.6193 34.268 18.6791 34.2357 18.7329C34.2034 18.7867 34.1611 18.8334 34.1112 18.8704C34.0612 18.9075 34.0047 18.934 33.9447 18.9487C32.4169 19.322 30.8401 19.4389 29.2758 19.295C27.7214 19.1565 26.1622 18.7769 24.6002 18.1894C22.8932 17.5347 21.1104 17.1105 19.2966 16.9275C17.5961 16.7617 15.8811 16.8537 14.2068 17.2002C14.0876 17.2251 13.9636 17.2016 13.861 17.1348C13.7583 17.0679 13.685 16.9629 13.6563 16.8417C13.6044 16.6203 13.4767 16.4253 13.2964 16.2923C13.1161 16.1592 12.8952 16.0969 12.6739 16.1167C12.5494 16.1262 12.4263 16.0847 12.3317 16.0011C12.2371 15.9176 12.1787 15.799 12.1694 15.6714L11.5757 7.87563C11.5664 7.74802 11.607 7.62185 11.6885 7.52489C11.7699 7.42792 11.8856 7.3681 12.0101 7.35858C12.1495 7.34935 12.2851 7.30786 12.4066 7.23721C12.5281 7.16656 12.6324 7.06859 12.7116 6.95068C12.7909 6.83277 12.843 6.69798 12.8641 6.55644C12.8852 6.41491 12.8747 6.27031 12.8334 6.13352L12.8276 6.11095C12.7988 5.98683 12.8193 5.85608 12.8846 5.74744C12.9498 5.6388 13.0545 5.56118 13.1756 5.53164C14.7034 5.15827 16.2801 5.04131 17.8445 5.18533C19.3988 5.32379 20.958 5.70339 22.52 6.2909C24.2271 6.9456 26.01 7.36981 27.8239 7.55283Z" fill="url(#paint1_linear_30_5699)"/>
<path fill-rule="evenodd" clip-rule="evenodd" d="M8.34668 25.7697L11.9487 31.9627C14.6932 29.5205 16.1308 30.0065 18.9416 30.958C20.0861 31.3454 21.4752 31.8157 23.2994 32.1754C23.3081 32.1771 23.3167 32.1791 23.3252 32.1812C23.8489 32.3164 24.8164 32.2289 26.2277 31.9187C27.6897 31.5976 29.5998 31.0366 31.9581 30.2358C31.9715 30.2313 31.9849 30.2275 31.9983 30.2242C33.3489 29.8129 34.0496 29.29 34.2749 28.8248C34.3288 28.7277 34.3495 28.615 34.3338 28.5044C34.3113 28.4125 34.2588 28.3313 34.185 28.2743C33.9102 28.0418 33.3779 27.9452 32.6746 28.0974C32.6656 28.0993 32.6566 28.1009 32.6475 28.1023C31.9419 28.2359 31.3537 28.3748 30.8135 28.5024C29.5252 28.8067 28.5045 29.0479 26.5479 29.0603C26.5125 29.0605 26.4772 29.0566 26.4426 29.0486C26.1162 28.9729 25.4603 28.771 24.4751 28.4429C23.475 28.1099 22.164 27.6579 20.5418 27.0869C20.4243 27.0453 20.3276 26.9577 20.2728 26.8433C20.218 26.729 20.2096 26.597 20.2493 26.4763C20.2891 26.3555 20.3738 26.2558 20.485 26.1988C20.5962 26.1418 20.7248 26.1322 20.8429 26.172C21.5145 26.3616 22.3253 26.3975 23.1754 26.3244C24.1672 26.2312 25.1456 26.0237 26.0921 25.7057C26.806 25.2807 27.1442 24.8143 27.2254 24.4002C27.2595 24.2332 27.2474 24.0598 27.1903 23.8996C27.1362 23.7518 27.0445 23.6215 26.9249 23.5222C26.8006 23.4217 26.6551 23.3522 26.5001 23.3193C26.3451 23.2864 26.1847 23.291 26.0317 23.3327C26.012 23.3375 25.9921 23.341 25.9719 23.3432C25.7206 23.3758 25.3577 23.4295 24.983 23.4843C23.005 23.7754 20.6812 24.1173 17.6689 23.4811C17.6217 23.4713 17.5763 23.4541 17.5342 23.43C16.2045 22.7506 14.9433 22.6256 13.4884 23.0346C12.0544 23.438 10.4164 24.3567 8.34668 25.7697Z" fill="url(#paint2_linear_30_5699)"/>
<path fill-rule="evenodd" clip-rule="evenodd" d="M3.33301 27.0461L8.44421 35.834L11.884 33.7322L7.3769 25.983C7.31394 25.9217 7.26866 25.8438 7.24602 25.7579L6.77278 24.9443L3.33301 27.0461ZM9.39151 33.505C9.30215 33.5941 9.18193 33.6431 9.05729 33.6414C8.93264 33.6396 8.81379 33.5872 8.72687 33.4956C8.63995 33.404 8.59209 33.2808 8.59381 33.153C8.59553 33.0252 8.6467 32.9034 8.73606 32.8143L8.80858 32.7424C8.89794 32.6533 9.01816 32.6043 9.14279 32.6061C9.26743 32.6078 9.38628 32.6603 9.47319 32.7519C9.5601 32.8435 9.60795 32.9667 9.60622 33.0944C9.60449 33.2222 9.55332 33.344 9.46396 33.4331L9.39151 33.505Z" fill="url(#paint3_linear_30_5699)"/>
<defs>
<linearGradient id="paint0_linear_30_5699" x1="12.5469" y1="6.0918" x2="35.6825" y2="8.75259" gradientUnits="userSpaceOnUse">
<stop stop-color="#1279FC"/>
<stop offset="1" stop-color="#02BD6E"/>
</linearGradient>
<linearGradient id="paint1_linear_30_5699" x1="10.4541" y1="4.16699" x2="38.0493" y2="7.04348" gradientUnits="userSpaceOnUse">
<stop stop-color="#1279FC"/>
<stop offset="1" stop-color="#02BD6E"/>
</linearGradient>
<linearGradient id="paint2_linear_30_5699" x1="8.34668" y1="22.8008" x2="35.1698" y2="27.5419" gradientUnits="userSpaceOnUse">
<stop stop-color="#1279FC"/>
<stop offset="1" stop-color="#02BD6E"/>
</linearGradient>
<linearGradient id="paint3_linear_30_5699" x1="3.33301" y1="24.9443" x2="12.41" y2="25.402" gradientUnits="userSpaceOnUse">
<stop stop-color="#1279FC"/>
<stop offset="1" stop-color="#02BD6E"/>
</linearGradient>
</defs>
</svg>
