<svg width="40" height="40" viewBox="0 0 40 40" fill="none" xmlns="http://www.w3.org/2000/svg">
<path d="M8.63321 18.4122C18.069 15.0506 21.5197 10.9266 22.7529 8.6815L21.6262 8.1964C21.3217 8.06529 21.286 7.63349 21.5892 7.46473L25.924 5.0517C26.1573 4.9218 26.4495 5.04765 26.516 5.30663L27.7529 10.1186C27.8393 10.4551 27.5021 10.7265 27.1975 10.5951L25.8428 10.0118C22.7728 13.9139 17.7549 18.3501 8.63321 18.4122ZM29.0605 14.2422H30.2767V30.3887C30.2767 30.6117 30.4582 30.7935 30.6808 30.7935H34.1484C34.371 30.7935 34.5525 30.6117 34.5525 30.3887V14.2422H35.7687C36.1764 14.2422 36.4041 13.773 36.1525 13.4516L33.1824 9.6569C32.7918 9.15797 32.0374 9.15797 31.6469 9.6569L28.6767 13.4516C28.4251 13.7731 28.6529 14.2422 29.0605 14.2422ZM23.0987 17.4072C22.8762 17.4072 22.6947 17.5891 22.6947 17.8121V30.3887C22.6947 30.6117 22.8762 30.7936 23.0987 30.7936H26.5664C26.789 30.7936 26.9705 30.6117 26.9705 30.3887V17.8121C26.9705 17.5891 26.789 17.4072 26.5664 17.4072H23.0987ZM15.5168 20.5722C15.2942 20.5722 15.1127 20.754 15.1127 20.977V30.3887C15.1127 30.6117 15.2942 30.7936 15.5168 30.7936H18.9845C19.207 30.7936 19.3885 30.6117 19.3885 30.3887V20.977C19.3885 20.7541 19.207 20.5722 18.9845 20.5722H15.5168ZM35.8039 33.2717H5.05786V6.91917C5.05786 6.44189 4.67173 6.05497 4.19543 6.05497C3.71914 6.05497 3.33301 6.44189 3.33301 6.91917V34.1358C3.33301 34.6131 3.71914 35 4.19543 35H35.8039C36.2802 35 36.6663 34.6131 36.6663 34.1358C36.6663 33.6585 36.2802 33.2717 35.8039 33.2717ZM7.93489 30.7935H11.4026C11.6251 30.7935 11.8066 30.6117 11.8066 30.3887V24.142C11.8066 23.919 11.6251 23.7371 11.4026 23.7371H7.93489C7.71233 23.7371 7.53085 23.919 7.53085 24.142V30.3887C7.53085 30.6117 7.71233 30.7935 7.93489 30.7935Z" fill="url(#paint0_linear_159_2545)"/>
<defs>
<linearGradient id="paint0_linear_159_2545" x1="3.33301" y1="5" x2="38.627" y2="7.51796" gradientUnits="userSpaceOnUse">
<stop stop-color="#1279FC"/>
<stop offset="1" stop-color="#02BD6E"/>
</linearGradient>
</defs>
</svg>
