<svg width="40" height="40" viewBox="0 0 40 40" fill="none" xmlns="http://www.w3.org/2000/svg">
<path d="M34.375 18.75H33.6867C33.0897 12.165 27.835 6.91033 21.25 6.31332V5.62502C21.25 5.27955 20.9705 5 20.625 5H19.375C19.0296 5 18.75 5.27955 18.75 5.62502V6.31332C12.165 6.91033 6.91033 12.165 6.31332 18.75H5.62502C5.27955 18.75 5 19.0296 5 19.375V20.625C5 20.9704 5.27955 21.25 5.62502 21.25H6.31332C6.91033 27.835 12.165 33.0897 18.75 33.6867V34.375C18.75 34.7204 19.0296 35 19.375 35H20.625C20.9705 35 21.25 34.7204 21.25 34.375V33.6867C27.835 33.0897 33.0897 27.835 33.6867 21.25H34.375C34.7205 21.25 35.0001 20.9704 35.0001 20.625V19.375C35 19.0296 34.7204 18.75 34.375 18.75ZM30 21.25H31.1762C30.5976 26.4553 26.4559 30.5976 21.25 31.1763V30C21.25 29.6545 20.9704 29.3749 20.625 29.3749H19.375C19.0295 29.3749 18.75 29.6545 18.75 30V31.1763C13.5441 30.5976 9.40232 26.4553 8.82371 21.25H9.99992C10.3454 21.25 10.6249 20.9704 10.6249 20.625V19.375C10.6249 19.0295 10.3454 18.75 9.99992 18.75H8.82377C9.40238 13.5447 13.5441 9.40232 18.75 8.82365V9.99998C18.75 10.3454 19.0296 10.625 19.375 10.625H20.625C20.9705 10.625 21.25 10.3454 21.25 9.99998V8.82371C26.4559 9.40238 30.5977 13.5447 31.1763 18.75H30.0001C29.6546 18.75 29.3751 19.0296 29.3751 19.375V20.625C29.375 20.9705 29.6546 21.25 30 21.25Z" fill="url(#paint0_linear_159_2534)"/>
<path d="M20 20C21.7259 20 23.125 18.6009 23.125 16.875C23.125 15.1491 21.7259 13.75 20 13.75C18.2741 13.75 16.875 15.1491 16.875 16.875C16.875 18.6009 18.2741 20 20 20Z" fill="url(#paint1_linear_159_2534)"/>
<path d="M24.2749 21.9146C23.2763 21.3263 21.7236 20.625 20 20.625C18.2764 20.625 16.7236 21.3263 15.7251 21.9146C14.8926 22.406 14.375 23.36 14.375 24.4043V24.8047C14.375 25.6018 14.9756 26.25 15.7141 26.25H24.2859C25.0244 26.25 25.625 25.6018 25.625 24.8047V24.4043C25.625 23.36 25.1074 22.406 24.2749 21.9146Z" fill="url(#paint2_linear_159_2534)"/>
<defs>
<linearGradient id="paint0_linear_159_2534" x1="5" y1="5" x2="36.7952" y2="7.04152" gradientUnits="userSpaceOnUse">
<stop stop-color="#1279FC"/>
<stop offset="1" stop-color="#02BD6E"/>
</linearGradient>
<linearGradient id="paint1_linear_159_2534" x1="16.875" y1="13.75" x2="23.499" y2="14.1753" gradientUnits="userSpaceOnUse">
<stop stop-color="#1279FC"/>
<stop offset="1" stop-color="#02BD6E"/>
</linearGradient>
<linearGradient id="paint2_linear_159_2534" x1="14.375" y1="20.625" x2="26.1531" y2="22.1375" gradientUnits="userSpaceOnUse">
<stop stop-color="#1279FC"/>
<stop offset="1" stop-color="#02BD6E"/>
</linearGradient>
</defs>
</svg>
