<svg width="40" height="40" viewBox="0 0 40 40" fill="none" xmlns="http://www.w3.org/2000/svg">
<path d="M14.4641 25.3712L10.2894 18.0967L7.08575 19.9548C5.09122 21.1186 4.40574 23.6855 5.56248 25.6969C6.71445 27.7035 9.26593 28.3931 11.2652 27.2341L14.4641 25.3712Z" fill="url(#paint0_linear_159_2512)"/>
<path d="M28.4696 12.6134C28.5601 12.7667 28.7172 12.8529 28.8838 12.8529C28.9647 12.8529 29.0456 12.8337 29.1218 12.7906L32.968 10.5541C33.1965 10.42 33.2727 10.1279 33.1442 9.89803C33.0109 9.66815 32.7205 9.59153 32.492 9.72083L28.6458 11.9573C28.4173 12.0914 28.3364 12.3835 28.4696 12.6134Z" fill="url(#paint1_linear_159_2512)"/>
<path d="M34.5052 15.8556L30.0686 16.0519C29.8068 16.0615 29.6021 16.2866 29.6116 16.55C29.6212 16.8086 29.8354 17.0097 30.0877 17.0097H30.1067L34.5432 16.8134C34.8051 16.8038 35.0097 16.5787 35.0002 16.3153C34.9907 16.0471 34.7717 15.8508 34.5052 15.8556Z" fill="url(#paint2_linear_159_2512)"/>
<path d="M25.6509 9.64922C25.7318 9.7019 25.8175 9.72584 25.9079 9.72584C26.065 9.72584 26.2174 9.64922 26.3078 9.50555L28.6974 5.73659C28.8402 5.5115 28.7736 5.21937 28.5546 5.0757C28.3309 4.93203 28.0405 4.99908 27.8977 5.22416L25.5081 8.99312C25.3653 9.21342 25.4319 9.50555 25.6509 9.64922Z" fill="url(#paint3_linear_159_2512)"/>
<path d="M14.2979 26.5732L11.7369 28.0626C11.3942 28.259 11.0324 28.4074 10.6611 28.5224C11.1181 30.8115 12.2844 32.8995 13.9933 34.4799C14.6312 35.069 15.5737 35.1648 16.321 34.729C16.3401 34.7194 16.3544 34.7098 16.3734 34.7002C17.4635 34.0681 17.711 32.5835 16.8685 31.6448C15.5927 30.2129 14.7026 28.4649 14.2979 26.5732Z" fill="url(#paint4_linear_159_2512)"/>
<path d="M20.6669 16.9185C19.1151 14.2127 17.8584 11.5405 17.1301 9.39019C16.7159 8.15941 16.4922 7.18245 16.4636 6.42578C15.4878 7.71882 14.988 9.84514 14.3215 11.6746C13.5361 14.1505 12.4555 16.114 11.0322 17.4693L15.3783 25.0455C17.2586 24.4804 19.4911 24.5235 22.0141 25.0742C23.9324 25.4047 26.0317 26.0416 27.6359 25.8261C24.8416 24.0877 21.1429 17.7422 20.6669 16.9185Z" fill="url(#paint5_linear_159_2512)"/>
<path d="M17.7393 5.37233C16.8587 5.88476 17.825 9.29454 19.929 13.5233C21.4475 12.8049 23.285 13.3604 24.1371 14.8498C24.9939 16.3392 24.5512 18.2213 23.1707 19.1839C25.7793 23.1731 28.2594 25.7592 29.1448 25.242C30.2206 24.6146 28.545 19.658 25.3938 14.1698C22.2425 8.68155 18.8199 4.74497 17.7393 5.37233Z" fill="url(#paint6_linear_159_2512)"/>
<defs>
<linearGradient id="paint0_linear_159_2512" x1="5" y1="18.0967" x2="15.0324" y2="18.7252" gradientUnits="userSpaceOnUse">
<stop stop-color="#1279FC"/>
<stop offset="1" stop-color="#02BD6E"/>
</linearGradient>
<linearGradient id="paint1_linear_159_2512" x1="28.4053" y1="9.6582" x2="33.4676" y2="10.1467" gradientUnits="userSpaceOnUse">
<stop stop-color="#1279FC"/>
<stop offset="1" stop-color="#02BD6E"/>
</linearGradient>
<linearGradient id="paint2_linear_159_2512" x1="29.6113" y1="15.8555" x2="34.8736" y2="17.4331" gradientUnits="userSpaceOnUse">
<stop stop-color="#1279FC"/>
<stop offset="1" stop-color="#02BD6E"/>
</linearGradient>
<linearGradient id="paint3_linear_159_2512" x1="25.4326" y1="5" x2="28.9801" y2="5.16099" gradientUnits="userSpaceOnUse">
<stop stop-color="#1279FC"/>
<stop offset="1" stop-color="#02BD6E"/>
</linearGradient>
<linearGradient id="paint4_linear_159_2512" x1="10.6611" y1="26.5732" x2="17.7845" y2="26.9375" gradientUnits="userSpaceOnUse">
<stop stop-color="#1279FC"/>
<stop offset="1" stop-color="#02BD6E"/>
</linearGradient>
<linearGradient id="paint5_linear_159_2512" x1="11.0322" y1="6.42578" x2="28.649" y2="7.39169" gradientUnits="userSpaceOnUse">
<stop stop-color="#1279FC"/>
<stop offset="1" stop-color="#02BD6E"/>
</linearGradient>
<linearGradient id="paint6_linear_159_2512" x1="17.4141" y1="5.30664" x2="30.2255" y2="5.8025" gradientUnits="userSpaceOnUse">
<stop stop-color="#1279FC"/>
<stop offset="1" stop-color="#02BD6E"/>
</linearGradient>
</defs>
</svg>
