<svg width="40" height="40" viewBox="0 0 40 40" fill="none" xmlns="http://www.w3.org/2000/svg">
<path fill-rule="evenodd" clip-rule="evenodd" d="M25.0055 28.9923L25.2367 20.9223C24.5636 20.6254 23.8304 20.497 23.0984 20.5477C21.1962 22.1795 19.2456 22.9704 17.3006 22.8977C15.3562 22.9697 13.4062 22.1795 11.5032 20.5473C9.48482 20.4153 8.06236 21.5802 7.21766 22.599C6.07227 23.9782 5.28688 25.9236 5.06232 27.9365C4.73306 30.8897 5.64626 34.5045 9.2995 34.9999H9.88845V29.2351C9.89003 29.0812 9.95123 28.9341 10.0588 28.8258C10.1663 28.7175 10.3115 28.6567 10.4628 28.6567C10.6141 28.6567 10.7593 28.7175 10.8668 28.8258C10.9744 28.9341 11.0356 29.0812 11.0372 29.2351V34.9999H23.5658V29.2352C23.5674 29.0813 23.6286 28.9342 23.7361 28.8259C23.8437 28.7176 23.9888 28.6569 24.1401 28.6569C24.2914 28.6569 24.4366 28.7176 24.5441 28.8259C24.6516 28.9342 24.7128 29.0813 24.7144 29.2352V35H25.3035C28.1238 34.6176 29.0944 32.4832 29.4236 30.9033H26.8298C26.5857 30.9034 26.344 30.8537 26.1191 30.757C25.8942 30.6603 25.6906 30.5186 25.5205 30.3404C25.3504 30.1622 25.2172 29.9511 25.1287 29.7195C25.0402 29.4879 24.9984 29.2406 25.0055 28.9923H25.0055ZM28.9493 17.8322C28.9456 17.6277 28.982 17.4246 29.0564 17.2346C29.1308 17.0447 29.2416 16.8717 29.3824 16.7258C29.5231 16.5799 29.6911 16.464 29.8764 16.3849C30.0617 16.3058 30.2606 16.265 30.4615 16.265C30.6625 16.265 30.8614 16.3058 31.0467 16.3849C31.232 16.464 31.4 16.5799 31.5407 16.7258C31.6815 16.8717 31.7923 17.0447 31.8667 17.2346C31.9411 17.4246 31.9775 17.6277 31.9738 17.8322V18.3883V20.2282H28.9495V17.8322H28.9493ZM33.1225 20.2282H33.8569C34.0294 20.2283 34.1954 20.2955 34.3208 20.4159C34.4463 20.5364 34.5218 20.7011 34.5319 20.8763L34.9989 29.0062C35.0042 29.0998 34.9907 29.1935 34.9592 29.2816C34.9277 29.3697 34.8789 29.4504 34.8157 29.5186C34.7525 29.5868 34.6763 29.6412 34.5917 29.6784C34.5071 29.7155 34.416 29.7348 34.3239 29.7348H26.83C26.7395 29.7349 26.6499 29.7164 26.5665 29.6805C26.4832 29.6447 26.4077 29.5922 26.3446 29.5261C26.2816 29.4601 26.2321 29.3818 26.1993 29.296C26.1665 29.2102 26.1509 29.1185 26.1535 29.0265L26.3871 20.8968C26.3913 20.7175 26.4644 20.5471 26.5907 20.4221C26.717 20.2971 26.8864 20.2275 27.0626 20.2282H27.8009V17.8322C27.8009 17.114 28.0813 16.4253 28.5803 15.9175C29.0793 15.4097 29.7561 15.1244 30.4619 15.1244C31.1676 15.1244 31.8444 15.4097 32.3434 15.9175C32.8424 16.4253 33.1228 17.114 33.1228 17.8322V20.2282H33.1225ZM21.6376 15.6537C22.6408 14.6327 23.2652 13.2893 23.4042 11.8524C23.5432 10.4155 23.1884 8.974 22.4001 7.7735C21.6117 6.573 20.4388 5.68779 19.081 5.26869C17.7232 4.84959 16.2646 4.92254 14.9537 5.47511C13.6429 6.02768 12.5609 7.02568 11.892 8.29905C11.2232 9.57243 11.009 11.0424 11.2858 12.4585C11.5626 13.8746 12.3134 15.1492 13.4102 16.0652C14.5071 16.9811 15.8821 17.4817 17.3009 17.4817C18.9274 17.481 20.487 16.8235 21.6376 15.6537Z" fill="url(#paint0_linear_159_2506)"/>
<defs>
<linearGradient id="paint0_linear_159_2506" x1="5" y1="5" x2="36.7952" y2="7.04152" gradientUnits="userSpaceOnUse">
<stop stop-color="#1279FC"/>
<stop offset="1" stop-color="#02BD6E"/>
</linearGradient>
</defs>
</svg>
