<svg width="25" height="24" viewBox="0 0 25 24" fill="none" xmlns="http://www.w3.org/2000/svg">
<path d="M3.74227 8.43601C3.67633 8.23968 3.78204 8.02707 3.97837 7.96113L12.062 5.24618C12.2583 5.18024 12.4709 5.28593 12.5369 5.48226L16.0789 16.0284C16.1448 16.2247 16.0391 16.4373 15.8428 16.5032L7.75916 19.2182C7.56283 19.284 7.3502 19.1785 7.28428 18.9822L3.74227 8.43601Z" fill="black"/>
<path d="M1.9413 7.62374C1.86944 7.40977 1.98462 7.17807 2.19859 7.1062L11.0084 4.14736C11.2224 4.07549 11.4541 4.19068 11.5259 4.40465L15.3861 15.8982C15.458 16.1121 15.3428 16.3438 15.1288 16.4157L6.31903 19.3746C6.10506 19.4463 5.87335 19.3312 5.80149 19.1172L1.9413 7.62374Z" fill="white"/>
<path fill-rule="evenodd" clip-rule="evenodd" d="M13.9342 4.22342L22.8993 6.67185C23.3348 6.79078 23.5915 7.24021 23.4725 7.67569L20.2782 19.3718C20.1593 19.8073 19.7098 20.064 19.2743 19.945L10.3093 17.4965C9.87378 17.3776 9.61719 16.9281 9.73611 16.4927L12.9304 4.79658C13.0493 4.3611 13.4987 4.10449 13.9342 4.22342ZM13.8266 4.61768C13.6088 4.55821 13.3841 4.68652 13.3246 4.90425L10.1304 16.6003C10.0709 16.8181 10.1992 17.0428 10.4169 17.1023L19.382 19.5506C19.5998 19.6101 19.8245 19.4818 19.8838 19.2641L23.0781 7.56802C23.1376 7.35027 23.0093 7.12555 22.7917 7.06609L13.8266 4.61768Z" fill="black"/>
<path fill-rule="evenodd" clip-rule="evenodd" d="M16.3875 15.8266C16.4148 15.7267 16.5179 15.6679 16.6178 15.6951L17.4002 15.9088C17.5001 15.9361 17.559 16.0392 17.5317 16.1391C17.5044 16.239 17.4013 16.2979 17.3014 16.2706L16.519 16.0569C16.4191 16.0296 16.3602 15.9265 16.3875 15.8266ZM18.3933 15.8466C18.4932 15.8739 18.5521 15.977 18.5248 16.0769L18.3774 16.6165C18.3501 16.7164 18.247 16.7753 18.1471 16.748C18.0473 16.7207 17.9884 16.6176 18.0157 16.5177L18.163 15.9781C18.1903 15.8782 18.2934 15.8194 18.3933 15.8466Z" fill="black"/>
<path d="M18.7207 11.4472C18.8842 11.3539 18.941 11.1457 18.8477 10.9822C18.7544 10.8188 18.5462 10.7619 18.3827 10.8553L16.3794 11.9991C16.1996 12.1017 15.9705 12.0392 15.8679 11.8594L15.2267 10.7363C15.1333 10.5729 14.9252 10.516 14.7617 10.6094C14.5983 10.7027 14.5414 10.9108 14.6347 11.0743L15.4616 12.5226L15.4615 12.5232L15.4613 12.5238L15.7988 13.1149L15.7994 13.1151L15.8001 13.1153L15.8007 13.1155L16.3918 12.7779L16.392 12.7773L16.3922 12.7767L18.7207 11.4472Z" fill="white"/>
<path fill-rule="evenodd" clip-rule="evenodd" d="M2.05737 7.00161L10.8672 4.04275C11.2951 3.89904 11.7585 4.12943 11.9022 4.55737L15.7624 16.0509C15.9062 16.4788 15.6758 16.9422 15.2478 17.086L6.43804 20.0449C6.0101 20.1885 5.54667 19.9582 5.40295 19.5302L1.54275 8.03668C1.39904 7.60876 1.62943 7.14533 2.05737 7.00161ZM2.18748 7.38903C1.97351 7.4609 1.85832 7.6926 1.93019 7.90657L5.79037 19.4001C5.86224 19.614 6.09394 19.7291 6.30791 19.6574L15.1177 16.6985C15.3317 16.6267 15.4469 16.395 15.375 16.181L11.5148 4.68748C11.443 4.47351 11.2113 4.35832 10.9973 4.43019L2.18748 7.38903Z" fill="black"/>
<path fill-rule="evenodd" clip-rule="evenodd" d="M4.57123 9.57488C4.53531 9.46789 4.59291 9.35204 4.69989 9.3161L9.94748 7.55365C10.0545 7.51773 10.1703 7.57533 10.2062 7.68231C10.2422 7.7893 10.1846 7.90515 10.0776 7.94109L4.83001 9.70354C4.72302 9.73946 4.60718 9.68186 4.57123 9.57488ZM4.98967 10.8209C4.95374 10.7139 5.01135 10.5981 5.11832 10.5621L10.3659 8.79968C10.4729 8.76374 10.5888 8.82134 10.6247 8.92834C10.6606 9.03531 10.603 9.15118 10.496 9.1871L5.24845 10.9495C5.14145 10.9855 5.02561 10.9279 4.98967 10.8209ZM5.40827 12.0669C5.37232 11.96 5.42993 11.8441 5.53692 11.8082L10.7845 10.0457C10.8915 10.0098 11.0073 10.0674 11.0433 10.1744C11.0792 10.2814 11.0216 10.3972 10.9146 10.4331L5.66703 12.1956C5.56005 12.2315 5.44419 12.1739 5.40827 12.0669ZM5.8267 13.313C5.79078 13.206 5.84836 13.0901 5.95536 13.0542L11.203 11.2917C11.3099 11.2558 11.4258 11.3134 11.4617 11.4204C11.4976 11.5274 11.4401 11.6432 11.3331 11.6791L6.08546 13.4416C5.97849 13.4775 5.86263 13.4199 5.8267 13.313ZM6.24514 14.5589C6.20921 14.4519 6.2668 14.3361 6.37379 14.3001L11.6214 12.5377C11.7284 12.5018 11.8442 12.5593 11.8802 12.6663C11.9161 12.7733 11.8585 12.8892 11.7515 12.9251L6.50392 14.6876C6.39692 14.7235 6.28108 14.6659 6.24514 14.5589ZM9.16955 14.9616C9.20555 15.0686 9.14803 15.1844 9.04108 15.2204L6.92248 15.9335C6.81552 15.9695 6.69962 15.912 6.66361 15.8051C6.62763 15.6981 6.68515 15.5822 6.79211 15.5462L8.9107 14.8331C9.01766 14.7971 9.13354 14.8546 9.16955 14.9616Z" fill="black"/>
<path d="M13.3123 5.18785C13.3718 4.9701 13.5965 4.84179 13.8143 4.90126L22.7794 7.34969C22.997 7.40915 23.1253 7.63387 23.0659 7.8516L19.8715 19.5477C19.8122 19.7654 19.5874 19.8937 19.3697 19.8342L10.4046 17.3858C10.1869 17.3264 10.0586 17.1017 10.1181 16.8839L13.3123 5.18785Z" fill="white"/>
<path fill-rule="evenodd" clip-rule="evenodd" d="M17.6851 15.3896C17.764 15.4119 17.822 15.4793 17.8322 15.5607L18.0846 17.5676C18.0986 17.6796 18.0193 17.7818 17.9073 17.7958C17.7953 17.8099 17.6931 17.7306 17.6791 17.6186L17.4868 16.09L16.5121 17.3035C16.4414 17.3915 16.3128 17.4055 16.2248 17.3348C16.1368 17.2641 16.1228 17.1355 16.1935 17.0475L17.4701 15.4582C17.5215 15.3943 17.6061 15.3672 17.6851 15.3896Z" fill="black"/>
<path fill-rule="evenodd" clip-rule="evenodd" d="M19.2669 17.1122C19.2372 17.2211 19.1249 17.2852 19.016 17.2555L18.4279 17.0949C18.319 17.0652 18.2549 16.9528 18.2846 16.8439C18.3143 16.7351 18.4267 16.6709 18.5356 16.7006L19.1237 16.8612C19.2325 16.891 19.2967 17.0033 19.2669 17.1122Z" fill="black"/>
<path fill-rule="evenodd" clip-rule="evenodd" d="M16.5139 11.9406L18.6972 10.694C19.0713 10.4804 19.5478 10.6105 19.7614 10.9847C19.9752 11.3588 19.845 11.8353 19.4708 12.0489L16.9571 13.4842C16.9492 13.4894 16.9411 13.4945 16.9327 13.4993L16.2884 13.8671C16.1911 13.9227 16.0805 13.9339 15.9801 13.9071C15.8776 13.8801 15.7855 13.8136 15.7288 13.7143L15.361 13.07C15.3562 13.0616 15.3517 13.053 15.3475 13.0443L14.4602 11.4903C14.2466 11.1161 14.3767 10.6396 14.7509 10.426C15.125 10.2124 15.6015 10.3425 15.8151 10.7167L16.5139 11.9406ZM19.4065 11.1873C19.5082 11.3655 19.4463 11.5923 19.2681 11.694L16.7304 13.143C16.7302 13.1431 16.7301 13.1434 16.7302 13.1437C16.7303 13.1437 16.7303 13.1438 16.7303 13.1439C16.7303 13.1441 16.7302 13.1442 16.73 13.1443L16.0858 13.5122C16.0856 13.5123 16.0852 13.5122 16.0851 13.512C16.085 13.5117 16.0847 13.5117 16.0845 13.5118C16.0842 13.5119 16.0839 13.5119 16.0837 13.5116L15.7159 12.8674C15.7158 12.8672 15.7159 12.8669 15.7161 12.8667C15.7163 12.8666 15.7164 12.8663 15.7163 12.866L14.8151 11.2877C14.7134 11.1095 14.7754 10.8827 14.9535 10.7809C15.1316 10.6792 15.3585 10.7412 15.4602 10.9193L16.159 12.1432C16.2709 12.3392 16.5205 12.4074 16.7165 12.2955L18.8998 11.0489C19.078 10.9472 19.3048 11.0092 19.4065 11.1873Z" fill="black"/>
</svg>
