<svg width="25" height="24" viewBox="0 0 25 24" fill="none" xmlns="http://www.w3.org/2000/svg">
<path d="M23.9617 2.32365C23.7274 2.08936 23.473 1.87206 23.2054 1.67808L22.9292 2.05911C23.1766 2.2386 23.4119 2.43946 23.6287 2.65642L23.9617 2.32365ZM22.455 1.74956L22.6926 1.34323C21.0389 0.376124 18.9853 0.221569 17.1995 0.929765L17.373 1.36735C19.0252 0.711782 20.9253 0.854851 22.455 1.74956ZM16.5878 1.7499L16.3502 1.34357C15.8892 1.61315 15.4625 1.94283 15.0818 2.32365L15.4146 2.65644C15.7669 2.30411 16.1616 1.99914 16.5878 1.7499ZM21.8607 3.41808C22.0547 3.55402 22.2388 3.70845 22.4078 3.87738L22.7406 3.54459C22.5523 3.35636 22.3471 3.184 22.1305 3.03243L21.8607 3.41808ZM21.3532 2.59576C19.6472 1.84848 17.6177 2.22966 16.3028 3.54459L16.6356 3.87738C17.8146 2.69839 19.6346 2.35652 21.1643 3.02692C21.2771 3.07634 21.3891 3.13162 21.497 3.19125L21.7247 2.77941C21.6042 2.71274 21.4791 2.65093 21.3532 2.59576ZM21.5196 4.76565C20.8136 4.05963 19.7729 3.77857 18.8045 4.03113L18.9233 4.48664C19.7312 4.27519 20.5987 4.51032 21.1868 5.09842L21.5196 4.76565ZM17.5238 4.76565L17.8566 5.09844C18.0617 4.89344 18.299 4.73014 18.5619 4.61305L18.3704 4.18306C18.0546 4.32359 17.7697 4.51963 17.5238 4.76565ZM20.6205 6.76338C20.6205 6.15758 20.1277 5.66472 19.5219 5.66472C18.9159 5.66472 18.4231 6.15758 18.4231 6.76338C18.4231 7.36931 18.9159 7.86217 19.5219 7.86217C20.1277 7.86217 20.6205 7.36931 20.6205 6.76338ZM19.5218 7.3915C19.1755 7.3915 18.8937 7.10974 18.8937 6.76338C18.8937 6.41714 19.1755 6.13539 19.5218 6.13539C19.8681 6.13539 20.1498 6.41714 20.1498 6.76338C20.1498 7.10974 19.8681 7.3915 19.5218 7.3915ZM8.88457 17.7076C9.13128 17.8865 9.36663 18.0875 9.58405 18.3049L9.91684 17.9721C9.68196 17.7372 9.42766 17.5201 9.16084 17.3265L8.88457 17.7076ZM8.41032 17.398L8.64797 16.9917C6.99415 16.0246 4.94056 15.8699 3.15472 16.5782L3.32823 17.0158C4.98068 16.3604 6.8805 16.5035 8.41032 17.398ZM2.30551 16.992C1.84459 17.2616 1.4178 17.5913 1.03711 17.9721L1.3699 18.3049C1.72221 17.9526 2.11694 17.6476 2.54316 17.3984L2.30551 16.992ZM7.81588 19.0664C8.01031 19.2027 8.1944 19.3573 8.36308 19.5258L8.69588 19.1931C8.50799 19.0051 8.30277 18.8328 8.08593 18.681L7.81588 19.0664ZM2.25807 19.1931L2.59084 19.5258C3.84917 18.2676 5.84864 17.9545 7.45241 18.8398L7.67994 18.4278C5.88944 17.4396 3.66016 17.7909 2.25807 19.1931ZM4.7598 19.6796L4.87863 20.1351C5.6861 19.9241 6.5537 20.1585 7.14205 20.7469L7.47484 20.4141C6.76904 19.7082 5.72862 19.4271 4.7598 19.6796ZM4.3258 19.8315C4.00978 19.9721 3.72482 20.1682 3.47901 20.4141L3.81202 20.7469C4.01681 20.5419 4.25409 20.3786 4.51723 20.2615L4.3258 19.8315ZM5.47708 21.3132C4.87128 21.3132 4.37842 21.806 4.37842 22.412C4.37842 23.0178 4.87128 23.5106 5.47708 23.5106C6.08301 23.5106 6.57587 23.0178 6.57587 22.412C6.57587 21.806 6.08301 21.3132 5.47708 21.3132ZM5.47708 23.04C5.13085 23.04 4.84909 22.7582 4.84909 22.412C4.84909 22.0656 5.13085 21.7839 5.47708 21.7839C5.82342 21.7839 6.1052 22.0656 6.1052 22.412C6.1052 22.7582 5.82344 23.04 5.47708 23.04Z" fill="black"/>
<path d="M11.3281 21.4941H10.8574V21.9648H11.3281V21.4941Z" fill="black"/>
<path d="M12.2695 21.4941H11.7988V21.9648H12.2695V21.4941Z" fill="black"/>
<path d="M14.1523 21.4941H13.6816V21.9648H14.1523V21.4941Z" fill="black"/>
<path d="M13.2109 21.4941H12.7402V21.9648H13.2109V21.4941Z" fill="black"/>
<path d="M21.0586 10.625H20.5879V11.0957H21.0586V10.625Z" fill="black"/>
<path d="M22.9414 10.625H22.4707V11.0957H22.9414V10.625Z" fill="black"/>
<path d="M20.1172 10.625H19.6465V11.0957H20.1172V10.625Z" fill="black"/>
<path d="M22 10.625H21.5293V11.0957H22V10.625Z" fill="black"/>
<path d="M10.4984 4.30372C10.4984 3.49232 9.79064 2.84158 8.9597 2.93467C8.32701 3.00441 7.81735 3.51463 7.74785 4.14779C7.72556 4.35084 7.74763 4.55494 7.81152 4.74429H5.35838V7.21328C4.35332 6.82734 3.31764 7.69325 3.51197 8.76001C3.66268 9.58798 4.54086 10.1 5.35838 9.7911V12.2617H7.9841C8.29123 12.2617 8.48367 11.9308 8.33056 11.6638C7.94396 10.9904 8.53583 10.1779 9.29501 10.3195C9.88992 10.4308 10.2208 11.1145 9.90819 11.662C9.75721 11.9268 9.94287 12.2617 10.2538 12.2617H12.8793V9.61781C12.8793 9.3866 12.6916 9.1985 12.4607 9.1985C12.2253 9.1985 12.1417 9.41016 11.7416 9.41016C11.1815 9.41016 10.7283 8.89977 10.8564 8.29965C10.9882 7.68265 11.7132 7.3997 12.2393 7.74324C12.3055 7.78644 12.3817 7.80919 12.4599 7.80919C12.6912 7.80919 12.8793 7.61981 12.8793 7.38689V4.74429H10.4263C10.4741 4.60318 10.4984 4.45551 10.4984 4.30372ZM12.4087 5.21496V7.29625C11.5976 6.84956 10.5858 7.31359 10.3961 8.2013C10.2082 9.08112 10.8701 9.88085 11.7416 9.88085C11.9766 9.88085 12.2053 9.82191 12.4086 9.70974V11.791H10.3708C10.7429 10.9876 10.2688 10.0229 9.38164 9.85683C9.29384 9.8404 9.20479 9.83212 9.1171 9.83212C8.11492 9.83212 7.44471 10.8783 7.86684 11.791H5.829V9.68354C5.829 9.46313 5.64998 9.28387 5.42991 9.28387C5.37016 9.28387 5.31236 9.29697 5.2579 9.32283C4.71483 9.58058 4.07964 9.25083 3.97502 8.67564C3.83805 7.9239 4.60522 7.36872 5.25525 7.68096C5.3104 7.70739 5.36913 7.72083 5.42957 7.72083C5.64986 7.72083 5.829 7.54156 5.829 7.3214V5.21496H7.91443C8.20076 5.21496 8.39661 4.92265 8.28341 4.66142C8.22067 4.51663 8.19792 4.36115 8.21572 4.199C8.26066 3.79002 8.60264 3.44758 9.01115 3.40254C9.55963 3.34095 10.0277 3.76876 10.0277 4.3037C10.0277 4.42837 10.0031 4.54845 9.9546 4.66061C9.84148 4.92174 10.0359 5.21494 10.323 5.21494L12.4087 5.21496Z" fill="black"/>
<path d="M22.8958 17.2169L17.7514 12.8608L18.5133 11.9837L16.4237 10.1686C17.0516 7.53078 16.2311 4.63913 14.0462 2.74117C10.9032 0.0111665 6.15516 0.36262 3.4415 3.48671C0.717055 6.62295 1.05007 11.3665 4.18704 14.0914C6.28584 15.9145 9.24416 16.4469 11.8763 15.4082L13.9636 17.2214L14.7294 16.3399L19.8762 20.6979C20.8418 21.5366 22.2965 21.425 23.1266 20.4694C23.9597 19.5104 23.8573 18.0521 22.8958 17.2169ZM4.49568 13.736C1.55576 11.1822 1.24243 6.73594 3.79679 3.79535C6.34577 0.860963 10.7973 0.542521 13.7376 3.09646C16.6708 5.64453 16.9843 10.1039 14.4364 13.0373C11.8877 15.9713 7.43586 16.2901 4.49568 13.736ZM13.917 16.5575L12.3527 15.1986C14.249 14.2941 15.665 12.654 16.2856 10.672L17.8494 12.0304L13.917 16.5575ZM22.7713 20.1608C22.1135 20.9179 20.9571 21.0134 20.1825 20.3406L15.039 15.9852L17.4436 13.217L22.5895 17.5742C23.3526 18.2373 23.4342 19.3975 22.7713 20.1608Z" fill="black"/>
</svg>
