<svg width="25" height="24" viewBox="0 0 25 24" fill="none" xmlns="http://www.w3.org/2000/svg">
<path d="M3.00977 16.5818L7.91886 10.6182L9.80977 12.2545L4.90067 18.2182L3.00977 16.5818Z" stroke="black" strokeWidth="0.5" stroke-miterlimit="10" strokeLinecap="round" strokeLinejoin="round"/>
<path d="M12.137 21.3092L12.7188 21.7819C13.0824 22.0728 13.1188 22.5819 12.8279 22.9455C12.537 23.3092 12.0279 23.3455 11.6642 23.0546L7.7006 19.8546C7.51879 19.7092 7.26424 19.4546 7.00969 19.2001C6.71879 18.9092 5.66424 17.8546 5.48242 17.491L9.22788 12.9092L9.84606 13.4183C9.99151 13.5637 10.2097 13.6001 10.3915 13.6001C10.6097 13.5637 10.7915 13.6365 10.937 13.7819L11.0824 13.891M13.8824 18.4365L16.4642 20.5819C16.8279 20.8728 17.337 20.8365 17.6279 20.4728C17.9188 20.1092 17.8824 19.6001 17.5188 19.3092L12.7915 15.4183" stroke="black" strokeWidth="0.5" stroke-miterlimit="10" strokeLinecap="round" strokeLinejoin="round"/>
<path d="M13.0448 19.9273L14.1721 20.8364C14.5357 21.1273 14.5721 21.6364 14.2812 22C13.9903 22.3636 13.4812 22.4 13.1176 22.1091L11.9903 21.2M14.3539 18.8364L15.7357 19.9636C16.0994 20.2545 16.1357 20.7636 15.8448 21.1273C15.5539 21.4909 15.0448 21.5273 14.6812 21.2364L13.5176 20.2545M12.7176 15.5273L12.7903 15.8545C13.0085 16.7273 12.4994 17.6364 11.663 17.9273L10.9357 15.7818C10.6812 15.0545 10.9357 14.2545 11.5539 13.7818L12.6448 12.9818C13.0085 12.7273 13.4448 12.5818 13.9176 12.5818H14.3176C14.7176 12.5818 15.1539 12.4727 15.4812 12.2545L15.8812 12" stroke="black" strokeWidth="0.5" stroke-miterlimit="10" strokeLinecap="round" strokeLinejoin="round"/>
<path d="M21.0827 17.5632L18.7554 18.7632L15.5918 11.2359L17.9191 10.0723L21.0827 17.5632Z" stroke="black" strokeWidth="0.5" stroke-miterlimit="10" strokeLinecap="round" strokeLinejoin="round"/>
<path d="M18.6091 18.291L17.2637 18.8365" stroke="black" strokeWidth="0.5" stroke-miterlimit="10" strokeLinecap="round" strokeLinejoin="round"/>
<path d="M14.2817 1.89086H19.0453C19.4453 1.89086 19.6999 2.21813 19.6999 2.58176C19.6999 2.9454 19.9908 3.23631 20.3544 3.23631C20.5726 3.23631 20.7908 3.12722 20.8999 2.9454C21.0089 2.72722 21.2635 2.61813 21.4817 2.61813C22.0271 2.61813 22.3544 3.19995 22.0635 3.67267C21.6999 4.25449 21.0453 4.65449 20.318 4.65449C19.4453 4.65449 18.6817 4.10904 18.4271 3.30904H14.0999M10.8271 3.27267H6.79077C6.49986 4.03631 5.77259 4.61813 4.89986 4.61813C4.17259 4.61813 3.5544 4.25449 3.19077 3.70904C2.89986 3.27267 3.19077 2.65449 3.73622 2.61813C3.99077 2.58176 4.24531 2.72722 4.39077 2.9454C4.49986 3.12722 4.71804 3.23631 4.97259 3.23631C5.26349 3.19995 5.51804 2.90904 5.51804 2.5454C5.51804 2.18176 5.84531 1.85449 6.20895 1.85449H10.7908M1.44531 7.09086C2.71804 9.89086 6.79077 9.85449 8.09986 7.09086H1.44531ZM16.8999 7.09086C18.1726 9.89086 22.2453 9.85449 23.5544 7.09086H16.8999Z" stroke="black" strokeWidth="0.5" stroke-miterlimit="10" strokeLinecap="round" strokeLinejoin="round"/>
<path d="M2.24609 7.09089L4.90064 4.61816L7.11882 7.09089" stroke="black" strokeWidth="0.5" stroke-miterlimit="10" strokeLinecap="round" strokeLinejoin="round"/>
<path d="M18.1367 7.05453L20.3185 4.61816L22.3549 7.09089" stroke="black" strokeWidth="0.5" stroke-miterlimit="10" strokeLinecap="round" strokeLinejoin="round"/>
<path d="M13.5547 3.96387L14.1001 12.582" stroke="black" strokeWidth="0.5" stroke-miterlimit="10" strokeLinecap="round" strokeLinejoin="round"/>
<path d="M10.8281 13.5632L11.4463 4.07227" stroke="black" strokeWidth="0.5" stroke-miterlimit="10" strokeLinecap="round" strokeLinejoin="round"/>
<path d="M14.2816 2.50936C14.2816 3.49118 13.4816 4.29118 12.4998 4.29118C11.518 4.29118 10.718 3.49118 10.718 2.50936C10.6816 1.52754 11.4816 0.727539 12.4634 0.727539C13.4453 0.727539 14.2816 1.52754 14.2816 2.50936Z" stroke="black" strokeWidth="0.5" stroke-miterlimit="10" strokeLinecap="round" strokeLinejoin="round"/>
</svg>
