<svg width="25" height="24" viewBox="0 0 25 24" fill="none" xmlns="http://www.w3.org/2000/svg">
<g clip-path="url(#clip0_217_2830)">
<path d="M7.9 10.4996C8.45 9.89961 8.45 8.99961 7.9 8.39961L5.1 5.34961C4.8 4.99961 4.4 4.84961 3.95 4.84961C3.5 4.84961 3.15 4.99961 2.85 5.29961L1.5 6.69961C0.5 7.64961 0.5 9.39961 1.5 11.5996C2.45 13.6996 4.25 16.0496 6.5 18.2496C10.1 21.7496 13.75 23.7496 16.2 23.7496C17.05 23.7496 17.8 23.4996 18.3 22.9496L19.65 21.5496C19.95 21.2496 20.1 20.8496 20.05 20.4496C20.05 19.9996 19.85 19.5996 19.5 19.2996L16.35 16.5996C15.7 16.0496 14.8 16.0996 14.25 16.6496L14.05 16.8496C13.35 17.5496 12.15 17.5496 11.4 16.7996L7.8 13.2996C7.4 12.9496 7.2 12.4496 7.2 11.9496C7.2 11.4496 7.35 10.9996 7.7 10.6496L7.9 10.4996ZM7.2 9.79961L7 9.94961C6.5 10.4996 6.2 11.1996 6.25 11.9996C6.3 12.7496 6.6 13.4996 7.15 13.9996L10.75 17.4996C11.9 18.6496 13.75 18.6496 14.8 17.5496L15 17.3496C15.2 17.1496 15.5 17.1496 15.75 17.3496L18.9 20.0496C19.05 20.1496 19.1 20.2996 19.1 20.4996C19.1 20.6496 19.05 20.7496 18.95 20.8496L17.6 22.2496C16.3 23.5996 12 22.1496 7.2 17.5496C5 15.4496 3.3 13.1496 2.4 11.1996C1.6 9.39961 1.5 7.99961 2.15 7.34961L3.5 5.94961C3.6 5.84961 3.7 5.79961 3.85 5.79961C4 5.79961 4.15 5.84961 4.3 5.99961L7.1 9.04961C7.35 9.24961 7.35 9.59961 7.2 9.79961Z" fill="#171717"/>
<path d="M24.2502 9.45V1.95C24.2502 1 23.5002 0.25 22.5502 0.25H11.1502C10.2002 0.25 9.4502 1 9.4502 1.95V9.45C9.4502 10.4 10.2002 11.15 11.1502 11.15H12.1502V13.5C12.1502 13.7 12.2502 13.9 12.4502 13.95C12.5002 14 12.6002 14 12.6502 14C12.8002 14 12.9002 13.95 13.0002 13.85L16.2502 10.6L15.5002 9.95L13.1502 12.3V10.65C13.1502 10.35 12.9502 10.15 12.6502 10.15H11.1502C10.7502 10.15 10.4502 9.85 10.4502 9.45V1.95C10.4502 1.55 10.7502 1.25 11.1502 1.25H22.5502C22.9502 1.25 23.2502 1.55 23.2502 1.95V9.45C23.2502 9.85 22.9502 10.15 22.5502 10.15H17.0002V11.15H22.5502C23.5002 11.15 24.2502 10.4 24.2502 9.45Z" fill="#171717"/>
<path d="M13.25 5.2002H14.25V6.2002H13.25V5.2002ZM16.35 5.2002H17.35V6.2002H16.35V5.2002ZM19.4 5.2002H20.4V6.2002H19.4V5.2002Z" fill="#171717"/>
</g>
<defs>
<clipPath id="clip0_217_2830">
<rect width="24" height="24" fill="white" transform="translate(0.5)"/>
</clipPath>
</defs>
</svg>
