<svg width="40" height="40" viewBox="0 0 40 40" fill="none" xmlns="http://www.w3.org/2000/svg">
<path d="M36.6663 10.3707V20C36.6665 20.2382 36.5968 20.4711 36.466 20.6692C36.3352 20.8673 36.1492 21.0217 35.9316 21.1129C35.7139 21.2041 35.4744 21.2279 35.2434 21.1814C35.0123 21.1349 34.8001 21.0201 34.6336 20.8516L30.7141 16.887L22.0327 25.6663C21.9221 25.7782 21.7908 25.8669 21.6463 25.9275C21.5018 25.9881 21.3469 26.0193 21.1905 26.0193C21.034 26.0193 20.8791 25.9881 20.7346 25.9275C20.5901 25.8669 20.4588 25.7782 20.3482 25.6663L15.2382 20.498L5.36637 30.4809C5.14299 30.7068 4.84003 30.8337 4.52412 30.8337C4.20822 30.8337 3.90525 30.7068 3.68188 30.4809C3.4585 30.2551 3.33301 29.9487 3.33301 29.6293C3.33301 29.3099 3.4585 29.0036 3.68188 28.7777L14.3959 17.9447C14.5065 17.8328 14.6378 17.744 14.7823 17.6835C14.9268 17.6229 15.0818 17.5917 15.2382 17.5917C15.3946 17.5917 15.5495 17.6229 15.6941 17.6835C15.8386 17.744 15.9699 17.8328 16.0804 17.9447L21.1905 23.113L29.0311 15.1853L25.11 11.2223C24.9433 11.0539 24.8298 10.8394 24.7838 10.6057C24.7378 10.3721 24.7614 10.13 24.8516 9.90991C24.9417 9.68985 25.0945 9.50179 25.2904 9.36955C25.4863 9.2373 25.7167 9.16681 25.9523 9.16699H35.4759C35.7916 9.16699 36.0944 9.29381 36.3177 9.51954C36.5409 9.74527 36.6663 10.0514 36.6663 10.3707Z" fill="url(#paint0_linear_933_4398)"/>
<defs>
<linearGradient id="paint0_linear_933_4398" x1="3.33301" y1="9.16699" x2="38.4638" y2="12.6373" gradientUnits="userSpaceOnUse">
<stop stop-color="#1279FC"/>
<stop offset="1" stop-color="#02BD6E"/>
</linearGradient>
</defs>
</svg>
