<svg width="40" height="40" viewBox="0 0 40 40" fill="none" xmlns="http://www.w3.org/2000/svg">
<path d="M12.6035 14.0719V17.8997C13.3848 17.4744 14.2181 17.2086 15.1556 17.2086H15.2598V14.0719C15.2598 13.8593 15.1035 13.6466 14.8431 13.6466H13.0202C12.7598 13.6466 12.6035 13.8593 12.6035 14.0719ZM19.1139 13.3276C19.1139 13.0618 18.9577 12.9023 18.6973 12.9023H16.8743C16.6139 12.9023 16.4577 13.115 16.4577 13.3276V17.2086H19.1139V13.3276ZM20.8327 20.9832V21.5679C20.8327 21.6211 20.8848 21.7274 20.9889 21.7274H23.0202V14.1251C23.0202 13.9124 22.8119 13.6998 22.6035 13.6998H20.7806C20.5202 13.6998 20.3639 13.9124 20.3639 14.1251V17.2617H21.5618C21.8744 17.2617 22.1348 17.5275 22.1348 17.8997V17.9528C22.1348 19.0693 21.6139 20.1857 20.8327 20.9832Z" fill="url(#paint0_linear_933_4414)"/>
<path d="M24.4268 23.9602C23.8018 23.9602 23.2288 23.5349 23.0726 22.8969H20.9893C20.3122 22.8969 19.7913 22.4185 19.6872 21.7805C19.3226 21.94 18.9059 22.0995 18.4372 22.1526C20.3643 23.3754 22.9684 25.6614 23.2288 28.9044C23.2809 29.2233 23.0205 29.5423 22.6559 29.5955C22.2913 29.5955 22.0309 29.3828 21.9788 29.0107C21.6143 24.7045 15.8851 22.2058 15.833 22.2058C15.5726 22.0995 15.4163 21.7805 15.4684 21.5147C15.5205 21.2489 15.7809 21.0362 16.0413 21.0362H17.7601C19.2705 21.0362 20.5726 19.9198 20.833 18.4844H15.1038C14.0622 18.4844 13.1247 18.8565 12.3955 19.4945L12.2393 19.654C11.8747 20.0261 11.5101 20.5046 11.3018 21.0362C10.6768 22.6311 10.9893 24.3855 12.1872 25.5551C12.5518 25.9272 12.9163 26.2994 13.2809 26.6183C15.1559 28.4791 16.4059 29.7018 16.4059 32.041V36.6662H24.1663V30.7119C24.1663 30.074 24.2705 29.4892 24.4788 28.9044L26.1976 24.0133H24.4268V23.9602Z" fill="url(#paint1_linear_933_4414)"/>
<path d="M24.4268 22.7376C24.4788 22.7376 26.2497 22.7907 26.7705 22.7376C26.8226 22.7376 26.8747 22.6844 26.8747 22.5781V14.6036C26.8747 14.4973 26.7705 14.391 26.6663 14.391H24.4268C24.3226 14.391 24.2184 14.4973 24.2184 14.6036V22.5249C24.2184 22.6313 24.3226 22.7376 24.4268 22.7376ZM12.6038 27.4159C12.5518 27.3628 12.5518 27.3096 12.4997 27.3096L10.2601 29.5956C9.99967 29.4361 9.73926 29.383 9.47884 29.383C8.54134 29.383 7.76009 30.1804 7.76009 31.1374C7.76009 32.0943 8.54134 32.8917 9.47884 32.8917C10.4163 32.8917 11.1976 32.0943 11.1976 31.1374C11.1976 30.8715 11.1455 30.6057 10.9893 30.3399L13.2288 28.0007C13.0726 27.8412 12.8643 27.6286 12.6038 27.4159ZM10.4163 20.611C10.5205 20.3452 10.6768 20.0794 10.833 19.8668H6.71842C6.51009 19.1756 5.83301 18.644 5.05176 18.644C4.11426 18.644 3.33301 19.4415 3.33301 20.3984C3.33301 21.3553 4.11426 22.1528 5.05176 22.1528C5.83301 22.1528 6.45801 21.6211 6.71842 20.93H10.3122C10.3643 20.8237 10.3643 20.7174 10.4163 20.611ZM9.42676 11.3607C9.73926 11.3607 9.99967 11.3075 10.208 11.148L12.0309 13.0087C12.2913 12.7429 12.6038 12.6366 13.0205 12.6366H13.1247L10.9372 10.4569C11.0413 10.1911 11.1455 9.92524 11.1455 9.65943C11.1455 8.70249 10.3643 7.90504 9.42676 7.90504C8.48926 7.90504 7.70801 8.70249 7.70801 9.65943C7.70801 10.5632 8.48926 11.3607 9.42676 11.3607ZM20.6768 6.78862V12.5834H21.7184V6.78862C22.3955 6.57596 22.9163 5.88484 22.9163 5.08739C22.9163 4.13046 22.1351 3.33301 21.1976 3.33301C20.2601 3.33301 19.4788 4.13046 19.4788 5.08739C19.4788 5.88484 19.9997 6.57596 20.6768 6.78862ZM26.6663 13.3809C26.9268 13.3809 27.1872 13.4872 27.3434 13.5935L29.7393 11.148C29.9997 11.2543 30.2601 11.3607 30.5205 11.3607C31.458 11.3607 32.2393 10.5632 32.2393 9.60627C32.2393 8.64933 31.458 7.85188 30.5205 7.85188C29.583 7.85188 28.8018 8.64933 28.8018 9.60627C28.8018 9.87208 28.8538 10.1911 29.0101 10.4037L26.0934 13.3809H26.6663ZM30.5726 29.383C30.3122 29.383 30.0518 29.4361 29.7913 29.5956L26.5622 26.2995L26.1455 27.4159L29.0101 30.3399C28.8538 30.6057 28.8018 30.8715 28.8018 31.1905C28.8018 32.1475 29.583 32.9449 30.5205 32.9449C31.458 32.9449 32.2393 32.1475 32.2393 31.1905C32.2913 30.1804 31.5101 29.383 30.5726 29.383ZM34.9476 18.644C34.1663 18.644 33.5413 19.1756 33.2809 19.8668H27.9163V20.93H33.2809C33.5413 21.6211 34.1663 22.1528 34.9476 22.1528C35.8851 22.1528 36.6663 21.3553 36.6663 20.3984C36.6663 19.4415 35.8851 18.644 34.9476 18.644Z" fill="url(#paint2_linear_933_4414)"/>
<defs>
<linearGradient id="paint0_linear_933_4414" x1="12.6035" y1="12.9023" x2="23.6257" y2="13.7377" gradientUnits="userSpaceOnUse">
<stop stop-color="#1279FC"/>
<stop offset="1" stop-color="#02BD6E"/>
</linearGradient>
<linearGradient id="paint1_linear_933_4414" x1="10.9873" y1="18.4844" x2="27.1277" y2="19.3513" gradientUnits="userSpaceOnUse">
<stop stop-color="#1279FC"/>
<stop offset="1" stop-color="#02BD6E"/>
</linearGradient>
<linearGradient id="paint2_linear_933_4414" x1="3.33301" y1="3.33301" x2="38.6223" y2="5.88363" gradientUnits="userSpaceOnUse">
<stop stop-color="#1279FC"/>
<stop offset="1" stop-color="#02BD6E"/>
</linearGradient>
</defs>
</svg>
