<svg width="40" height="40" viewBox="0 0 40 40" fill="none" xmlns="http://www.w3.org/2000/svg">
<path d="M3.33301 9.62926C3.33301 9.28548 3.4681 8.95577 3.70858 8.71267C3.94905 8.46958 4.2752 8.33301 4.61528 8.33301H32.8252C33.1653 8.33301 33.4915 8.46958 33.7319 8.71267C33.9724 8.95577 34.1075 9.28548 34.1075 9.62926C34.1075 9.97305 33.9724 10.3028 33.7319 10.5459C33.4915 10.789 33.1653 10.9255 32.8252 10.9255H4.61528C4.2752 10.9255 3.94905 10.789 3.70858 10.5459C3.4681 10.3028 3.33301 9.97305 3.33301 9.62926ZM4.61528 21.2956H16.1557C16.4958 21.2956 16.8219 21.159 17.0624 20.9159C17.3029 20.6728 17.438 20.3431 17.438 19.9993C17.438 19.6555 17.3029 19.3258 17.0624 19.0827C16.8219 18.8396 16.4958 18.7031 16.1557 18.7031H4.61528C4.2752 18.7031 3.94905 18.8396 3.70858 19.0827C3.4681 19.3258 3.33301 19.6555 3.33301 19.9993C3.33301 20.3431 3.4681 20.6728 3.70858 20.9159C3.94905 21.159 4.2752 21.2956 4.61528 21.2956ZM18.7203 29.0731H4.61528C4.2752 29.0731 3.94905 29.2097 3.70858 29.4528C3.4681 29.6959 3.33301 30.0256 3.33301 30.3694C3.33301 30.7132 3.4681 31.0429 3.70858 31.286C3.94905 31.529 4.2752 31.6656 4.61528 31.6656H18.7203C19.0603 31.6656 19.3865 31.529 19.627 31.286C19.8674 31.0429 20.0025 30.7132 20.0025 30.3694C20.0025 30.0256 19.8674 29.6959 19.627 29.4528C19.3865 29.2097 19.0603 29.0731 18.7203 29.0731ZM36.297 29.4523L33.0432 26.1565C33.9179 24.8163 34.2694 23.1955 34.0294 21.6082C33.7895 20.0209 32.9752 18.5802 31.7445 17.5652C30.5137 16.5502 28.954 16.0331 27.3677 16.1143C25.7814 16.1954 24.2813 16.8689 23.1581 18.0043C22.035 19.1397 21.3687 20.6562 21.2885 22.2598C21.2082 23.8634 21.7197 25.4401 22.7237 26.6843C23.7278 27.9285 25.153 28.7516 26.7231 28.9942C28.2933 29.2367 29.8966 28.8815 31.2224 27.9972L34.4762 31.2865C34.7168 31.5297 35.0431 31.6663 35.3834 31.6663C35.7236 31.6663 36.05 31.5297 36.2906 31.2865C36.5312 31.0432 36.6663 30.7133 36.6663 30.3694C36.6663 30.0254 36.5312 29.6955 36.2906 29.4523H36.297Z" fill="url(#paint0_linear_933_4391)"/>
<defs>
<linearGradient id="paint0_linear_933_4391" x1="3.33301" y1="8.33301" x2="38.5106" y2="11.5597" gradientUnits="userSpaceOnUse">
<stop stop-color="#1279FC"/>
<stop offset="1" stop-color="#02BD6E"/>
</linearGradient>
</defs>
</svg>
