<svg width="40" height="40" viewBox="0 0 40 40" fill="none" xmlns="http://www.w3.org/2000/svg">
<path fill-rule="evenodd" clip-rule="evenodd" d="M8.36582 22.3935C11.9266 21.2754 14.6694 21.0417 19.735 24.5336L26.1217 23.0763C27.9327 22.6685 28.3002 24.0157 28.5933 24.9918L20.7455 29.1573C20.12 29.5789 20.5487 30.2708 21.0474 30.0326L29.4682 25.6013L29.6913 24.7031L36.7866 19.4974C38.4052 18.3105 38.7901 19.6532 39.1663 20.5605L31.3798 28.8182L23.0771 33.2953C21.9791 33.891 20.8855 34.0972 19.6607 33.9506L8.36582 32.6125V22.3935ZM0.833008 22.279H7.39031V34.166H0.833008V22.279Z" fill="url(#paint0_linear_933_4405)"/>
<path fill-rule="evenodd" clip-rule="evenodd" d="M19.8717 5.83301C24.1027 5.83301 27.5355 9.22151 27.5355 13.398C27.5355 17.5802 24.1027 20.9687 19.8717 20.9687C15.6349 20.9687 12.2021 17.5802 12.2021 13.398C12.2021 9.22151 15.6349 5.83301 19.8717 5.83301ZM20.573 7.34151V8.65301C21.2117 8.77684 21.7078 9.08642 22.067 9.49732C22.5061 10.0039 22.7228 10.6568 22.7285 11.3154V11.5012L21.3257 11.4392V11.3323C21.3257 10.9833 21.2174 10.6512 21.0007 10.3979C20.7897 10.1615 20.4647 9.99265 20.0085 9.97576C19.9515 9.97014 19.9059 9.97013 19.8717 9.97013C19.4383 9.97576 19.1019 10.1221 18.8681 10.3416C18.6913 10.5049 18.5716 10.7188 18.5088 10.9383C18.4461 11.1578 18.4461 11.383 18.4974 11.58C18.5544 11.7826 18.6742 11.9627 18.8567 12.0753V12.0697L20.1796 12.7901V12.7958L21.5481 13.5106L21.5766 13.5275C22.1126 13.8371 22.4491 14.3155 22.5973 14.8559C22.7171 15.2949 22.7114 15.779 22.5802 16.2349C22.4548 16.6909 22.2039 17.1186 21.8332 17.462C21.5025 17.7772 21.0805 18.0136 20.573 18.1318V19.4602H19.1646V18.1487C18.5259 18.0249 18.0298 17.7153 17.6763 17.3044C17.2372 16.7978 17.0148 16.1449 17.0091 15.4863C17.0091 15.4131 17.0091 15.3512 17.0148 15.2949L18.4119 15.3625V15.4694C18.4176 15.8184 18.5202 16.1505 18.7426 16.4038C18.9479 16.6402 19.2729 16.8034 19.7291 16.8259C19.7861 16.8316 19.8317 16.8316 19.866 16.8316C20.2993 16.8259 20.6358 16.6796 20.8696 16.4601C21.0463 16.2968 21.1661 16.083 21.2288 15.8634C21.2915 15.6439 21.2972 15.4188 21.2402 15.2218C21.1832 15.0191 21.0691 14.8446 20.8867 14.7321L19.5124 14.0116L19.501 14.0059L18.1781 13.2855L18.161 13.2742C17.625 12.9646 17.2885 12.4862 17.1403 11.9458C17.0205 11.5068 17.0262 11.0227 17.1574 10.5668C17.2885 10.1109 17.5337 9.68307 17.9044 9.33971C18.2351 9.0245 18.6571 8.7881 19.1646 8.66989V7.34151H20.573Z" fill="url(#paint1_linear_933_4405)"/>
<defs>
<linearGradient id="paint0_linear_933_4405" x1="0.833008" y1="19.0303" x2="40.5767" y2="25.4933" gradientUnits="userSpaceOnUse">
<stop stop-color="#1279FC"/>
<stop offset="1" stop-color="#02BD6E"/>
</linearGradient>
<linearGradient id="paint1_linear_933_4405" x1="12.2021" y1="5.83301" x2="28.4513" y2="6.88996" gradientUnits="userSpaceOnUse">
<stop stop-color="#1279FC"/>
<stop offset="1" stop-color="#02BD6E"/>
</linearGradient>
</defs>
</svg>
